# Blender 3.6.1
# www.blender.org
mtllib Cabinet1.mtl
o KitchenCabinet1
v 0.765361 0.775246 -4.112523
v 0.765361 0.024102 -4.112523
v 0.765361 0.775246 -3.361380
v 0.765361 0.024102 -3.361380
v 0.111975 0.799695 -4.136971
v 0.111975 -0.000346 -4.136971
v 0.111975 0.799695 -3.336931
v 0.111975 -0.000346 -3.336931
v 0.765361 0.799695 -4.136971
v 0.765361 -0.000346 -4.136971
v 0.765361 0.799695 -3.336931
v 0.765361 -0.000346 -3.336931
v 0.143761 0.775246 -4.112523
v 0.143761 0.024102 -4.112523
v 0.143761 0.775246 -3.361380
v 0.143761 0.024102 -3.361380
v 0.111975 0.799695 -4.136971
v 0.111975 0.799695 -3.336931
v 0.111975 0.832010 -3.336931
v 0.111975 0.832010 -4.136971
v 0.796427 0.812224 -4.136971
v 0.786195 0.799695 -4.136971
v 0.793430 0.803364 -4.136971
v 0.786195 0.799695 -3.336931
v 0.796427 0.812224 -3.336931
v 0.793430 0.803364 -3.336931
v 0.796427 0.819481 -3.336931
v 0.786195 0.832010 -3.336931
v 0.793430 0.828340 -3.336931
v 0.786195 0.832010 -4.136971
v 0.796427 0.819481 -4.136971
v 0.793430 0.828340 -4.136971
v 0.765361 -0.000346 -3.336931
v 0.765361 0.799695 -3.336931
v 0.765361 -0.000346 -3.736130
v 0.765361 0.799695 -3.736130
v 0.784615 0.003190 -3.340467
v 0.781079 -0.000346 -3.336931
v 0.784615 0.796158 -3.340467
v 0.781079 0.799695 -3.336931
v 0.784615 0.003190 -3.732594
v 0.781079 -0.000346 -3.736130
v 0.784615 0.796158 -3.732594
v 0.781079 0.799695 -3.736130
v 0.765361 0.748097 -3.682894
v 0.784615 0.748097 -3.682894
v 0.781079 0.799695 -3.682894
v 0.765361 0.748097 -3.336931
v 0.765361 0.748097 -3.736130
v 0.784615 0.796158 -3.682894
v 0.781079 0.748097 -3.336931
v 0.781079 -0.000346 -3.682894
v 0.784615 0.748097 -3.340467
v 0.784615 0.003190 -3.682894
v 0.765361 0.799695 -3.682894
v 0.784615 0.748097 -3.732594
v 0.765361 -0.000346 -3.682894
v 0.781079 0.748097 -3.736130
v 0.784615 0.748097 -3.702789
v 0.784615 0.741063 -3.699876
v 0.784615 0.738149 -3.692842
v 0.784615 0.741063 -3.685808
v 0.784615 0.755131 -3.685808
v 0.784615 0.758044 -3.692842
v 0.784615 0.755131 -3.699876
v 0.791111 0.748097 -3.702789
v 0.791111 0.741063 -3.699876
v 0.791111 0.738149 -3.692842
v 0.791111 0.741063 -3.685808
v 0.791111 0.748097 -3.682894
v 0.791111 0.755131 -3.685808
v 0.791111 0.758044 -3.692842
v 0.791111 0.755131 -3.699876
v 0.801189 0.736664 -3.704275
v 0.800861 0.748097 -3.707956
v 0.791440 0.748097 -3.707956
v 0.800861 0.732983 -3.692842
v 0.801189 0.736664 -3.681409
v 0.800861 0.748097 -3.677728
v 0.801189 0.759530 -3.681409
v 0.800861 0.763211 -3.692842
v 0.801189 0.759530 -3.704275
v 0.791111 0.736664 -3.704275
v 0.791440 0.732983 -3.692842
v 0.791111 0.736664 -3.681409
v 0.791440 0.748097 -3.677728
v 0.791111 0.759530 -3.681409
v 0.791440 0.763211 -3.692842
v 0.791111 0.759530 -3.704275
v 0.804059 0.748097 -3.692842
v 0.765361 -0.000346 -4.136971
v 0.765361 0.799695 -4.136971
v 0.765361 -0.000346 -3.737773
v 0.765361 0.799695 -3.737773
v 0.784615 0.003190 -4.133435
v 0.781079 -0.000346 -4.136971
v 0.784615 0.796158 -4.133435
v 0.781079 0.799695 -4.136971
v 0.784615 0.003190 -3.741309
v 0.781079 -0.000346 -3.737773
v 0.784615 0.796158 -3.741309
v 0.781079 0.799695 -3.737773
v 0.765361 0.748097 -3.791008
v 0.784615 0.748097 -3.791008
v 0.781079 0.799695 -3.791008
v 0.765361 0.748097 -4.136971
v 0.765361 0.748097 -3.737773
v 0.784615 0.796158 -3.791008
v 0.781079 0.748097 -4.136971
v 0.781079 -0.000346 -3.791008
v 0.784615 0.748097 -4.133435
v 0.784615 0.003190 -3.791008
v 0.765361 0.799695 -3.791008
v 0.784615 0.748097 -3.741309
v 0.765361 -0.000346 -3.791008
v 0.781079 0.748097 -3.737773
v 0.784615 0.748097 -3.771113
v 0.784615 0.741063 -3.774027
v 0.784615 0.738149 -3.781061
v 0.784615 0.741063 -3.788095
v 0.784615 0.755131 -3.788095
v 0.784615 0.758044 -3.781061
v 0.784615 0.755131 -3.774027
v 0.791111 0.748097 -3.771113
v 0.791111 0.741063 -3.774027
v 0.791111 0.738149 -3.781061
v 0.791111 0.741063 -3.788095
v 0.791111 0.748097 -3.791008
v 0.791111 0.755131 -3.788095
v 0.791111 0.758044 -3.781061
v 0.791111 0.755131 -3.774027
v 0.801189 0.736664 -3.769628
v 0.800861 0.748097 -3.765947
v 0.791440 0.748097 -3.765947
v 0.800861 0.732983 -3.781061
v 0.801189 0.736664 -3.792494
v 0.800861 0.748097 -3.796175
v 0.801189 0.759530 -3.792494
v 0.800861 0.763211 -3.781061
v 0.801189 0.759530 -3.769628
v 0.791111 0.736664 -3.769628
v 0.791440 0.732983 -3.781061
v 0.791111 0.736664 -3.792494
v 0.791440 0.748097 -3.796175
v 0.791111 0.759530 -3.792494
v 0.791440 0.763211 -3.781061
v 0.791111 0.759530 -3.769628
v 0.804059 0.748097 -3.781061
v 0.111975 0.832010 -3.336931
v 0.111975 0.860285 -3.336931
v 0.111975 0.832010 -4.136971
v 0.111975 0.860285 -4.136971
v 0.123328 0.832010 -3.336931
v 0.123328 0.832010 -4.136971
v 0.111975 0.815852 -4.136971
v 0.111975 0.815852 -3.336931
v 0.786195 0.815852 -3.336931
v 0.786195 0.815852 -4.136971
vn -0.0000 1.0000 -0.0000
vn -0.0000 -0.0000 1.0000
vn -1.0000 -0.0000 -0.0000
vn -0.0000 -1.0000 -0.0000
vn -0.0000 -0.0000 -1.0000
vn 1.0000 -0.0000 -0.0000
vn 0.2366 -0.9716 -0.0000
vn 0.9871 -0.1603 -0.0000
vn 0.9473 -0.3204 -0.0000
vn 0.4523 -0.8918 -0.0000
vn 0.2366 0.9716 -0.0000
vn 0.4523 0.8918 -0.0000
vn 0.9473 0.3204 -0.0000
vn 0.9871 0.1603 -0.0000
vn 0.7071 -0.0000 0.7071
vn 0.7071 -0.0000 -0.7071
vn 0.7071 -0.7071 -0.0000
vn 0.7071 0.7071 -0.0000
vn -0.9997 -0.0159 0.0159
vn -0.9993 -0.0365 -0.0000
vn -0.9993 -0.0000 0.0365
vn -0.9997 0.0159 0.0159
vn -0.0000 0.3827 -0.9239
vn -0.0000 0.9239 -0.3827
vn -0.0000 0.9239 0.3827
vn -0.0000 0.3827 0.9239
vn -0.0000 -0.3827 0.9239
vn -0.0000 -0.9239 0.3827
vn -0.0000 -0.9239 -0.3827
vn -0.0000 -0.3827 -0.9239
vn -0.0000 -0.3065 -0.9519
vn -0.0000 -0.9519 -0.3065
vn -0.0000 -0.9519 0.3065
vn -0.0000 -0.3065 0.9519
vn -0.0000 0.3065 0.9519
vn -0.0000 0.9519 0.3065
vn -0.0000 0.9519 -0.3065
vn -0.0000 0.3065 -0.9519
vn -0.9997 -0.0159 -0.0159
vn -0.9993 -0.0000 -0.0365
vn -0.9997 0.0159 -0.0159
vn -0.9993 0.0365 -0.0000
vn 0.9783 -0.2071 -0.0000
vn 0.9890 -0.1047 -0.1047
vn 0.9890 -0.1047 0.1047
vn 0.9783 -0.0000 -0.2070
vn 0.9890 0.1047 -0.1047
vn 0.9890 0.1047 0.1047
vn 0.9783 -0.0000 0.2070
vn 0.9783 0.2071 -0.0000
vn 0.9280 0.3726 -0.0000
vt 0.268059 0.731542
vt 0.268059 0.993748
vt 0.005853 0.993748
vt 0.005853 0.731542
vt 0.731642 0.731472
vt 0.993849 0.731472
vt 0.993849 0.993678
vt 0.731642 0.993678
vt 0.728235 0.437424
vt 0.728235 0.175217
vt 0.990441 0.175217
vt 0.990441 0.437424
vt 0.689536 0.451689
vt 0.689536 0.713895
vt 0.427330 0.713895
vt 0.427330 0.451689
vt 0.418795 0.307436
vt 0.319740 0.406492
vt 0.219369 0.306121
vt 0.318424 0.207065
vt 0.730132 0.444991
vt 0.992339 0.444991
vt 0.992339 0.707198
vt 0.730132 0.707198
vt 0.984326 0.715210
vt 0.738145 0.715210
vt 0.739655 0.723459
vt 0.985836 0.723459
vt 0.013866 0.723529
vt 0.260046 0.723529
vt 0.681524 0.721908
vt 0.435343 0.721908
vt 0.120314 0.207065
vt 0.219369 0.108010
vt 0.319740 0.007639
vt 0.418795 0.106694
vt 0.019943 0.106694
vt 0.118998 0.007639
vt 0.118998 0.406492
vt 0.019943 0.307436
vt 0.438780 0.424454
vt 0.433484 0.424454
vt 0.433484 0.153887
vt 0.438780 0.153887
vt 0.420122 0.429420
vt 0.157916 0.429420
vt 0.157916 0.424125
vt 0.420122 0.424125
vt 0.711578 0.153887
vt 0.711577 0.424454
vt 0.706282 0.424454
vt 0.706282 0.153887
vt 0.710388 0.428560
vt 0.707485 0.427358
vt 0.420122 0.705283
vt 0.157916 0.705283
vt 0.157916 0.434716
vt 0.420122 0.434716
vt 0.444076 0.433118
vt 0.706282 0.433118
vt 0.706282 0.436261
vt 0.444076 0.436261
vt 0.706282 0.439404
vt 0.444076 0.439404
vt 0.444076 0.424454
vt 0.706282 0.427597
vt 0.444076 0.427597
vt 0.706282 0.430740
vt 0.444076 0.430740
vt 0.126945 0.432426
vt 0.126945 0.438734
vt 0.013558 0.438734
vt 0.013558 0.432426
vt 0.126945 0.676946
vt 0.014717 0.676946
vt 0.014717 0.440566
vt 0.126945 0.440566
vt 0.126945 0.702287
vt 0.126945 0.708595
vt 0.013558 0.708595
vt 0.013558 0.702287
vt 0.151373 0.701614
vt 0.145065 0.701614
vt 0.145065 0.676946
vt 0.151373 0.676946
vt 0.466330 0.967736
vt 0.448883 0.967736
vt 0.448883 0.730198
vt 0.466330 0.730198
vt 0.143233 0.676946
vt 0.143233 0.700455
vt 0.126945 0.700455
vt 0.012885 0.701614
vt 0.012885 0.676946
vt 0.014717 0.700455
vt 0.144392 0.702287
vt 0.143233 0.440566
vt 0.145065 0.439407
vt 0.466330 0.992404
vt 0.448883 0.992404
vt 0.012885 0.439407
vt 0.006577 0.701614
vt 0.006577 0.676946
vt 0.006577 0.439407
vt 0.151373 0.439407
vt 0.144392 0.432426
vt 0.144392 0.438734
vt 0.144392 0.708595
vt 0.579717 0.967736
vt 0.579717 0.730198
vt 0.579717 0.992404
vt 0.948055 0.114376
vt 0.974707 0.114376
vt 0.974707 0.132108
vt 0.948055 0.132108
vt 0.921403 0.114376
vt 0.921403 0.132108
vt 0.894750 0.114376
vt 0.894750 0.132108
vt 0.841445 0.089638
vt 0.841445 0.114376
vt 0.814792 0.114376
vt 0.814792 0.089638
vt 0.868097 0.089638
vt 0.868097 0.114376
vt 0.894750 0.089638
vt 0.921403 0.089638
vt 0.948055 0.089638
vt 0.974707 0.089638
vt 0.788140 0.089638
vt 0.788140 0.114376
vt 0.761487 0.114376
vt 0.761487 0.089638
vt 0.577945 0.084702
vt 0.545181 0.078090
vt 0.542904 0.056069
vt 0.573150 0.044218
vt 0.518304 0.035150
vt 0.549323 0.009898
vt 0.487285 0.009898
vt 0.493704 0.056069
vt 0.463458 0.044218
vt 0.491427 0.078090
vt 0.458663 0.084703
vt 0.499736 0.096120
vt 0.480503 0.119209
vt 0.518304 0.101303
vt 0.518304 0.134280
vt 0.536872 0.096120
vt 0.556105 0.119209
vt 0.788140 0.132108
vt 0.761487 0.132108
vt 0.814792 0.132108
vt 0.841445 0.132108
vt 0.868097 0.132108
vt 0.518304 0.074868
vt 0.304630 0.717488
vt 0.418016 0.717488
vt 0.418016 0.723796
vt 0.304630 0.723796
vt 0.304630 0.962008
vt 0.304630 0.725628
vt 0.416858 0.725628
vt 0.416858 0.962008
vt 0.304630 0.987349
vt 0.418016 0.987349
vt 0.418016 0.993656
vt 0.304630 0.993656
vt 0.280202 0.986675
vt 0.280202 0.962008
vt 0.286509 0.962008
vt 0.286509 0.986675
vt 0.704066 0.968457
vt 0.704066 0.730919
vt 0.721514 0.730919
vt 0.721514 0.968457
vt 0.288342 0.962008
vt 0.304630 0.985516
vt 0.288342 0.985516
vt 0.418690 0.986675
vt 0.416858 0.985516
vt 0.418690 0.962008
vt 0.287183 0.987349
vt 0.286509 0.724469
vt 0.288342 0.725628
vt 0.721514 0.993125
vt 0.704066 0.993125
vt 0.418690 0.724469
vt 0.424998 0.962008
vt 0.424998 0.986675
vt 0.424998 0.724469
vt 0.280202 0.724469
vt 0.287183 0.717488
vt 0.287183 0.723796
vt 0.287183 0.993656
vt 0.590680 0.968457
vt 0.590680 0.730919
vt 0.590680 0.993125
vt 0.939208 0.042172
vt 0.939208 0.031316
vt 0.965143 0.031316
vt 0.965143 0.042172
vt 0.913272 0.042172
vt 0.913272 0.031316
vt 0.887337 0.042172
vt 0.887337 0.031316
vt 0.835467 0.057318
vt 0.809532 0.057318
vt 0.809532 0.042172
vt 0.835467 0.042172
vt 0.861402 0.057318
vt 0.861402 0.042172
vt 0.887337 0.057318
vt 0.913272 0.057318
vt 0.939208 0.057318
vt 0.965143 0.057318
vt 0.783597 0.057318
vt 0.757662 0.057318
vt 0.757662 0.042172
vt 0.783597 0.042172
vt 0.605725 0.086688
vt 0.610520 0.046204
vt 0.640766 0.058054
vt 0.638488 0.080075
vt 0.634347 0.011883
vt 0.665366 0.037136
vt 0.696385 0.011883
vt 0.720212 0.046204
vt 0.689966 0.058054
vt 0.725006 0.086688
vt 0.692243 0.080075
vt 0.703167 0.121195
vt 0.683934 0.098106
vt 0.665366 0.136266
vt 0.665366 0.103289
vt 0.627565 0.121195
vt 0.646798 0.098106
vt 0.757662 0.031316
vt 0.783597 0.031316
vt 0.809532 0.031316
vt 0.835467 0.031316
vt 0.861402 0.031316
vt 0.665366 0.076854
vt 0.699295 0.454734
vt 0.708562 0.454734
vt 0.708562 0.716941
vt 0.699295 0.716941
vt 0.699295 0.721496
vt 0.718888 0.716941
vt 0.718888 0.454734
vt 0.699295 0.450178
vt 0.716873 0.153887
vt 0.716873 0.424454
vt 0.444076 0.153887
vt 0.712767 0.428560
vt 0.715670 0.427358
vt 0.439969 0.428560
vt 0.442873 0.427358
vt 0.437591 0.428560
vt 0.434687 0.427357
s 1
usemtl KitchenCabinet1
f 9/1/1 5/2/1 7/3/1 11/4/1
f 12/5/2 11/6/2 7/7/2 8/8/2
f 8/9/3 7/10/3 5/11/3 6/12/3
f 6/13/4 10/14/4 12/15/4 8/16/4
f 4/17/1 2/18/1 14/19/1 16/20/1
f 6/21/5 5/22/5 9/23/5 10/24/5
f 1/25/6 2/26/6 10/24/6 9/23/6
f 4/27/6 3/28/6 11/6/6 12/5/6
f 3/29/6 1/30/6 9/1/6 11/4/6
f 2/31/6 4/32/6 12/15/6 10/14/6
f 14/19/6 13/33/6 15/34/6 16/20/6
f 3/35/5 4/36/5 16/20/5 15/34/5
f 1/37/4 3/38/4 15/34/4 13/33/4
f 2/39/2 1/40/2 13/33/2 14/19/2
f 158/41/5 22/42/5 17/43/5 155/44/5
f 155/45/3 156/46/3 19/47/3 20/48/3
f 156/49/2 157/50/2 28/51/2 19/52/2
f 157/50/2 27/53/2 29/54/2 28/51/2
f 22/55/7 24/56/7 18/57/4 17/58/4
f 21/59/8 25/60/8 26/61/9 23/62/9
f 23/62/10 26/61/10 24/63/7 22/64/7
f 30/65/11 28/51/11 29/66/12 32/67/12
f 32/67/13 29/66/13 27/68/14 31/69/14
f 25/60/8 21/59/8 31/69/14 27/68/14
f 57/70/4 52/71/4 38/72/4 33/73/4
f 46/74/6 53/75/6 37/76/6 54/77/6
f 47/78/1 55/79/1 34/80/1 40/81/1
f 36/82/5 44/83/5 58/84/5 49/85/5
f 45/86/3 49/87/3 35/88/3 57/89/3
f 56/90/6 43/91/6 50/92/6 46/74/6
f 40/93/15 51/94/15 53/75/15 39/95/15
f 43/91/16 56/90/16 58/84/16 44/83/16
f 54/77/17 37/76/17 38/72/17 52/71/17
f 50/92/18 43/91/18 44/96/18 47/78/18
f 58/84/16 56/90/16 41/97/16 42/98/16
f 45/86/3 55/99/3 36/100/3 49/87/3
f 53/75/15 51/94/15 38/101/15 37/76/15
f 46/74/6 50/92/6 39/95/6 53/75/6
f 51/94/2 40/93/2 34/102/2 48/103/2
f 51/94/2 48/103/2 33/104/2 38/101/2
f 49/85/5 58/84/5 42/98/5 35/105/5
f 35/106/4 42/107/4 52/71/4 57/70/4
f 56/90/6 46/74/6 54/77/6 41/97/6
f 44/96/1 36/108/1 55/79/1 47/78/1
f 48/109/3 45/86/3 57/89/3 33/110/3
f 41/97/17 54/77/17 52/71/17 42/107/17
f 39/95/18 50/92/18 47/78/18 40/81/18
f 48/109/3 34/111/3 55/99/3 45/86/3
f 69/112/19 68/113/20 84/114/20 85/115/19
f 70/116/21 69/112/19 85/115/19 86/117/21
f 71/118/22 70/116/21 86/117/21 87/119/22
f 65/120/23 73/121/23 66/122/23 59/123/23
f 64/124/24 72/125/24 73/121/24 65/120/24
f 63/126/25 71/118/25 72/125/25 64/124/25
f 46/127/26 70/116/26 71/118/26 63/126/26
f 62/128/27 69/112/27 70/116/27 46/127/27
f 61/129/28 68/113/28 69/112/28 62/128/28
f 60/130/29 67/131/29 68/132/29 61/133/29
f 59/123/30 66/122/30 67/131/30 60/130/30
f 76/134/31 75/135/31 74/136/31 83/137/31
f 83/137/32 74/136/32 77/138/32 84/139/32
f 84/140/33 77/138/33 78/141/33 85/142/33
f 85/142/34 78/141/34 79/143/34 86/144/34
f 86/144/35 79/143/35 80/145/35 87/146/35
f 87/146/36 80/145/36 81/147/36 88/148/36
f 88/148/37 81/147/37 82/149/37 89/150/37
f 89/150/38 82/149/38 75/135/38 76/134/38
f 68/132/20 67/131/39 83/151/39 84/152/20
f 67/131/39 66/122/40 76/153/40 83/151/39
f 66/122/40 73/121/41 89/154/41 76/153/40
f 73/121/41 72/125/42 88/155/42 89/154/41
f 72/125/42 71/118/22 87/119/22 88/155/42
f 77/138/43 74/136/44 90/156/6 78/141/45
f 74/136/44 75/135/46 82/149/47 90/156/6
f 78/141/45 90/156/6 80/145/48 79/143/49
f 90/156/6 82/149/47 81/147/50 80/145/48
f 115/157/4 91/158/4 96/159/4 110/160/4
f 104/161/6 112/162/6 95/163/6 111/164/6
f 105/165/1 98/166/1 92/167/1 113/168/1
f 94/169/2 107/170/2 116/171/2 102/172/2
f 103/173/3 115/174/3 93/175/3 107/176/3
f 114/177/6 104/161/6 108/178/6 101/179/6
f 98/180/16 97/181/16 111/164/16 109/182/16
f 101/179/15 102/172/15 116/171/15 114/177/15
f 112/162/17 110/160/17 96/159/17 95/163/17
f 108/178/18 105/165/18 102/183/18 101/179/18
f 116/171/15 100/184/15 99/185/15 114/177/15
f 103/173/3 107/176/3 94/186/3 113/187/3
f 111/164/16 95/163/16 96/188/16 109/182/16
f 104/161/6 111/164/6 97/181/6 108/178/6
f 109/182/5 106/189/5 92/190/5 98/180/5
f 109/182/5 96/188/5 91/191/5 106/189/5
f 107/170/2 93/192/2 100/184/2 116/171/2
f 93/193/4 115/157/4 110/160/4 100/194/4
f 114/177/6 99/185/6 112/162/6 104/161/6
f 102/183/1 105/165/1 113/168/1 94/195/1
f 106/196/3 91/197/3 115/174/3 103/173/3
f 99/185/17 100/194/17 110/160/17 112/162/17
f 97/181/18 98/166/18 105/165/18 108/178/18
f 106/196/3 103/173/3 113/187/3 92/198/3
f 127/199/39 143/200/39 142/201/20 126/202/20
f 128/203/40 144/204/40 143/200/39 127/199/39
f 129/205/41 145/206/41 144/204/40 128/203/40
f 123/207/26 117/208/26 124/209/26 131/210/26
f 122/211/25 123/207/25 131/210/25 130/212/25
f 121/213/24 122/211/24 130/212/24 129/205/24
f 104/214/23 121/213/23 129/205/23 128/203/23
f 120/215/30 104/214/30 128/203/30 127/199/30
f 119/216/29 120/215/29 127/199/29 126/202/29
f 118/217/28 119/218/28 126/219/28 125/220/28
f 117/208/27 118/217/27 125/220/27 124/209/27
f 134/221/34 141/222/34 132/223/34 133/224/34
f 141/222/33 142/225/33 135/226/33 132/223/33
f 142/227/32 143/228/32 136/229/32 135/226/32
f 143/228/31 144/230/31 137/231/31 136/229/31
f 144/230/38 145/232/38 138/233/38 137/231/38
f 145/232/37 146/234/37 139/235/37 138/233/37
f 146/234/36 147/236/36 140/237/36 139/235/36
f 147/236/35 134/221/35 133/224/35 140/237/35
f 126/219/20 142/238/20 141/239/19 125/220/19
f 125/220/19 141/239/19 134/240/21 124/209/21
f 124/209/21 134/240/21 147/241/22 131/210/22
f 131/210/22 147/241/22 146/242/42 130/212/42
f 130/212/42 146/242/42 145/206/41 129/205/41
f 135/226/43 136/229/44 148/243/6 132/223/45
f 132/223/45 148/243/6 140/237/48 133/224/49
f 136/229/44 137/231/46 138/233/47 148/243/6
f 148/243/6 138/233/47 139/235/50 140/237/48
s 0
f 149/244/3 150/245/3 152/246/3 151/247/3
f 151/247/5 152/246/5 154/248/5
f 154/249/51 152/246/51 150/245/51 153/250/51
f 153/251/2 150/245/2 149/244/2
s 1
f 18/252/2 24/253/2 157/50/2 156/49/2
f 30/65/11 20/254/1 19/52/1 28/51/11
f 17/58/3 18/57/3 156/46/3 155/45/3
f 157/50/2 25/255/2 27/53/2
f 24/253/2 26/256/2 25/255/2 157/50/2
f 31/257/5 158/41/5 30/65/5 32/258/5
f 30/65/5 158/41/5 155/44/5 20/254/5
f 21/259/5 23/260/5 22/42/5 158/41/5
f 31/257/5 21/259/5 158/41/5
