# Blender 3.6.1
# www.blender.org
mtllib Cupboard.mtl
o KitchenCupboard
v 0.505855 2.107112 -0.912360
v 0.505855 1.355968 -0.912360
v 0.505855 2.107112 -0.161217
v 0.505855 1.355968 -0.161217
v 0.111975 2.131560 -0.936809
v 0.111975 1.331520 -0.936809
v 0.111975 2.131560 -0.136768
v 0.111975 1.331520 -0.136768
v 0.505855 2.131560 -0.936809
v 0.505855 1.331520 -0.936809
v 0.505855 2.131560 -0.136768
v 0.505855 1.331520 -0.136768
v 0.143761 2.107112 -0.912360
v 0.143761 1.355968 -0.912360
v 0.143761 2.107112 -0.161217
v 0.143761 1.355968 -0.161217
v 0.505855 1.874803 -0.936809
v 0.505855 1.584311 -0.936809
v 0.505855 1.874803 -0.136768
v 0.505855 1.584311 -0.136768
v 0.505855 1.863479 -0.912360
v 0.505855 1.886126 -0.912360
v 0.505855 1.572987 -0.912360
v 0.505855 1.595635 -0.912360
v 0.505855 1.886126 -0.161217
v 0.505855 1.863479 -0.161217
v 0.505855 1.595635 -0.161217
v 0.505855 1.572987 -0.161217
v 0.143761 1.886126 -0.912360
v 0.143761 1.863479 -0.912360
v 0.143761 1.595635 -0.912360
v 0.143761 1.572987 -0.912360
v 0.143761 1.863479 -0.161217
v 0.143761 1.886126 -0.161217
v 0.143761 1.572987 -0.161217
v 0.143761 1.595635 -0.161217
v 0.505855 2.131560 -0.936809
v 0.505855 1.331520 -0.936809
v 0.505855 2.131560 -0.537610
v 0.505855 1.331520 -0.537610
v 0.525110 2.128024 -0.933272
v 0.521574 2.131560 -0.936809
v 0.525110 1.335056 -0.933272
v 0.521574 1.331520 -0.936809
v 0.525110 2.128024 -0.541146
v 0.521574 2.131560 -0.537610
v 0.525110 1.335056 -0.541146
v 0.521574 1.331520 -0.537610
v 0.505855 1.375050 -0.573747
v 0.521574 1.331520 -0.573747
v 0.505855 1.375050 -0.936809
v 0.505855 1.375050 -0.537610
v 0.525110 1.335056 -0.575417
v 0.521574 1.375050 -0.936809
v 0.521574 2.131560 -0.573747
v 0.525110 1.375050 -0.933272
v 0.525110 2.128024 -0.575417
v 0.505855 1.331520 -0.573747
v 0.525110 1.375050 -0.541146
v 0.505855 2.131560 -0.573747
v 0.521574 1.375050 -0.537610
v 0.505855 2.131560 -0.912225
v 0.525110 2.128024 -0.908940
v 0.521574 1.331520 -0.912225
v 0.505855 1.331520 -0.912225
v 0.525110 1.375050 -0.908940
v 0.521574 2.131560 -0.912225
v 0.525110 1.335056 -0.908940
v 0.505855 1.375050 -0.912225
v 0.525110 1.375050 -0.575417
v 0.525110 1.403845 -0.567379
v 0.525110 1.495228 -0.567379
v 0.525110 1.403845 -0.583455
v 0.525110 1.495228 -0.583455
v 0.533548 1.495228 -0.567379
v 0.533548 1.403845 -0.567379
v 0.533548 1.403845 -0.583455
v 0.533548 1.495228 -0.583455
v 0.533421 1.381033 -0.581061
v 0.533548 1.518040 -0.581335
v 0.533421 1.381033 -0.569773
v 0.533548 1.518040 -0.569499
v 0.541352 1.502463 -0.581952
v 0.541794 1.396610 -0.581952
v 0.541352 1.502463 -0.568881
v 0.541794 1.396610 -0.568881
v 0.525110 1.518076 -0.581952
v 0.525110 1.380997 -0.581952
v 0.525110 1.518076 -0.568881
v 0.525110 1.380997 -0.568881
v 0.542908 1.495228 -0.581952
v 0.542908 1.403845 -0.581952
v 0.542908 1.403845 -0.568881
v 0.542908 1.495228 -0.568881
v 0.534195 1.375050 -0.575417
v 0.545491 1.397683 -0.575417
v 0.505855 2.131560 -0.136768
v 0.534195 1.524023 -0.575417
v 0.525110 1.524023 -0.575417
v 0.545491 1.501390 -0.575417
v 0.547243 1.495228 -0.575417
v 0.547243 1.403845 -0.575417
v 0.505855 1.331520 -0.136768
v 0.505855 2.131560 -0.535967
v 0.505855 1.331520 -0.535967
v 0.525110 2.128024 -0.140304
v 0.521574 2.131560 -0.136768
v 0.525110 1.335056 -0.140304
v 0.521574 1.331520 -0.136768
v 0.525110 2.128024 -0.532431
v 0.521574 2.131560 -0.535967
v 0.525110 1.335056 -0.532431
v 0.521574 1.331520 -0.535967
v 0.505855 1.375050 -0.499830
v 0.521574 1.331520 -0.499830
v 0.505855 1.375050 -0.136768
v 0.505855 1.375050 -0.535967
v 0.525110 1.335056 -0.498160
v 0.521574 1.375050 -0.136768
v 0.521574 2.131560 -0.499830
v 0.525110 1.375050 -0.140304
v 0.525110 2.128024 -0.498160
v 0.505855 1.331520 -0.499830
v 0.525110 1.375050 -0.532431
v 0.505855 2.131560 -0.499830
v 0.521574 1.375050 -0.535967
v 0.505855 2.131560 -0.161352
v 0.525110 2.128024 -0.164637
v 0.521574 1.331520 -0.161352
v 0.505855 1.331520 -0.161352
v 0.525110 1.375050 -0.164637
v 0.521574 2.131560 -0.161352
v 0.525110 1.335056 -0.164637
v 0.505855 1.375050 -0.161352
v 0.525110 1.375050 -0.498160
v 0.525110 1.403845 -0.506198
v 0.525110 1.495228 -0.506198
v 0.525110 1.403845 -0.490122
v 0.525110 1.495228 -0.490122
v 0.533548 1.495228 -0.506198
v 0.533548 1.403845 -0.506198
v 0.533548 1.403845 -0.490122
v 0.533548 1.495228 -0.490122
v 0.533421 1.381033 -0.492516
v 0.533548 1.518040 -0.492242
v 0.533421 1.381033 -0.503804
v 0.533548 1.518040 -0.504078
v 0.541352 1.502463 -0.491624
v 0.541794 1.396610 -0.491624
v 0.541352 1.502463 -0.504696
v 0.541794 1.396610 -0.504696
v 0.525110 1.518076 -0.491624
v 0.525110 1.380997 -0.491624
v 0.525110 1.518076 -0.504696
v 0.525110 1.380997 -0.504696
v 0.542908 1.495228 -0.491624
v 0.542908 1.403845 -0.491624
v 0.542908 1.403845 -0.504696
v 0.542908 1.495228 -0.504696
v 0.534195 1.375050 -0.498160
v 0.545491 1.397683 -0.498160
v 0.534195 1.524023 -0.498160
v 0.525110 1.524023 -0.498160
v 0.545491 1.501390 -0.498160
v 0.547243 1.495228 -0.498160
v 0.547243 1.403845 -0.498160
vn -0.0000 1.0000 -0.0000
vn 1.0000 -0.0000 -0.0000
vn -0.0000 -0.0000 1.0000
vn -0.0000 -1.0000 -0.0000
vn -0.0000 -0.0000 -1.0000
vn -1.0000 -0.0000 -0.0000
vn 0.7071 -0.0000 -0.7071
vn 0.7071 -0.0000 0.7071
vn 0.7071 0.7071 -0.0000
vn 0.7071 -0.7071 -0.0000
vn 0.8098 0.3257 0.4880
vn 0.8355 0.1079 0.5388
vn 0.8358 0.0955 0.5407
vn 0.8188 0.2793 0.5016
vn 0.1411 0.0347 0.9894
vn 0.1201 0.0761 0.9898
vn 0.0584 0.0783 0.9952
vn 0.1053 0.0517 0.9931
vn 0.8429 -0.0942 0.5298
vn 0.8422 -0.0845 0.5324
vn 0.7868 -0.4156 0.4563
vn 0.8289 -0.2705 0.4897
vn 0.8164 -0.3219 0.4794
vn 0.0677 -0.0846 0.9941
vn 0.1067 -0.0561 0.9927
vn 0.0531 -0.0851 0.9950
vn 0.7901 0.4024 0.4623
vn 0.0259 0.7212 0.6922
vn 0.0531 -0.0851 -0.9950
vn 0.1067 -0.0561 -0.9927
vn 0.0677 -0.0846 -0.9941
vn 0.1347 -0.0391 -0.9901
vn 0.1074 -0.0834 -0.9907
vn 0.0366 0.0790 0.9962
vn 0.0366 0.0790 -0.9962
vn 0.0584 0.0783 -0.9952
vn 0.1053 0.0517 -0.9931
vn 0.1074 -0.0834 0.9907
vn 0.1347 -0.0391 0.9901
vn 0.1201 0.0761 -0.9898
vn 0.1411 0.0347 -0.9894
vn 0.8355 0.1079 -0.5388
vn 0.8358 0.0955 -0.5407
vn 0.8422 -0.0845 -0.5324
vn 0.8429 -0.0942 -0.5298
vn 0.8164 -0.3219 -0.4794
vn 0.8289 -0.2705 -0.4897
vn 0.7868 -0.4156 -0.4563
vn 0.0259 0.7212 -0.6922
vn 0.0374 -0.7127 0.7005
vn 0.7901 0.4024 -0.4623
vn 0.8188 0.2794 -0.5016
vn 0.8098 0.3257 -0.4880
vn 0.0374 -0.7127 -0.7005
vn 0.8188 0.2793 -0.5016
vn 0.8188 0.2794 0.5016
vt 0.596394 0.995030
vt 0.430857 0.995030
vt 0.430857 0.720429
vt 0.596394 0.720429
vt 0.923912 0.911889
vt 0.923912 0.987739
vt 0.915521 0.996131
vt 0.915521 0.911889
vt 0.749983 0.911889
vt 0.430039 0.995030
vt 0.264502 0.995030
vt 0.264502 0.720429
vt 0.430039 0.720429
vt 0.004100 0.994099
vt 0.004100 0.736281
vt 0.156279 0.736281
vt 0.156279 0.994099
vt 0.428813 0.196036
vt 0.594350 0.196036
vt 0.594350 0.278916
vt 0.915521 0.721530
vt 0.915521 0.804409
vt 0.749983 0.721530
vt 0.923912 0.812183
vt 0.923912 0.904116
vt 0.915521 0.904116
vt 0.915521 0.812183
vt 0.604786 0.728820
vt 0.604786 0.986638
vt 0.256110 0.986638
vt 0.256110 0.728820
vt 0.157097 0.736281
vt 0.249030 0.736281
vt 0.249030 0.994099
vt 0.157097 0.994099
vt 0.692319 0.718180
vt 0.692319 0.642330
vt 0.950136 0.642330
vt 0.950136 0.718180
vt 0.269163 0.262818
vt 0.269163 0.005001
vt 0.421342 0.005001
vt 0.421342 0.262818
vt 0.684580 0.287331
vt 0.776513 0.287331
vt 0.776513 0.439510
vt 0.684580 0.439510
vt 0.998644 0.520475
vt 0.922795 0.520475
vt 0.922795 0.368296
vt 0.998644 0.368296
vt 0.923397 0.207609
vt 0.997885 0.207609
vt 0.997885 0.359788
vt 0.923397 0.359788
vt 0.685545 0.443118
vt 0.777478 0.443118
vt 0.777478 0.595297
vt 0.685545 0.595297
vt 0.798939 0.639061
vt 0.798939 0.564573
vt 0.951118 0.564573
vt 0.951118 0.639061
vt 0.423344 0.552465
vt 0.681162 0.552465
vt 0.681162 0.560238
vt 0.423344 0.560238
vt 0.423298 0.386802
vt 0.423298 0.312314
vt 0.681116 0.312314
vt 0.681116 0.386802
vt 0.919103 0.043901
vt 0.994953 0.043901
vt 0.994953 0.196080
vt 0.919103 0.196080
vt 0.923912 0.729921
vt 0.923912 0.804409
vt 0.428813 0.088556
vt 0.594350 0.096330
vt 0.428813 0.004315
vt 0.594350 0.004315
vt 0.594350 0.088556
vt 0.602742 0.196036
vt 0.602742 0.270525
vt 0.602742 0.096330
vt 0.602742 0.188263
vt 0.594350 0.188263
vt 0.749983 0.804409
vt 0.802184 0.006991
vt 0.802184 0.281592
vt 0.694704 0.281592
vt 0.694704 0.006991
vt 0.262171 0.154541
vt 0.262171 0.162314
vt 0.004353 0.162314
vt 0.004353 0.154541
vt 0.423344 0.400286
vt 0.681162 0.400286
vt 0.681162 0.712417
vt 0.423344 0.712417
vt 0.602742 0.088556
vt 0.602742 0.012707
vt 0.262171 0.314493
vt 0.004353 0.314493
vt 0.262171 0.002362
vt 0.004353 0.002362
vt 0.025943 0.713918
vt 0.025943 0.704924
vt 0.014455 0.704924
vt 0.014455 0.713918
vt 0.027478 0.350435
vt 0.016107 0.350435
vt 0.016107 0.702312
vt 0.027478 0.702312
vt 0.025943 0.329133
vt 0.025943 0.320138
vt 0.014455 0.320138
vt 0.014455 0.329133
vt 0.210961 0.330093
vt 0.201966 0.330093
vt 0.201966 0.350435
vt 0.210961 0.350435
vt 0.618007 0.735370
vt 0.605604 0.735370
vt 0.605604 0.995030
vt 0.618007 0.995030
vt 0.013495 0.330093
vt 0.013495 0.350435
vt 0.016107 0.331745
vt 0.199354 0.331745
vt 0.199354 0.350435
vt 0.183339 0.331745
vt 0.201006 0.329133
vt 0.184119 0.329133
vt 0.199354 0.702312
vt 0.201966 0.703964
vt 0.618007 0.720428
vt 0.605604 0.720428
vt 0.013495 0.703964
vt 0.027478 0.331745
vt 0.004500 0.330093
vt 0.004500 0.350435
vt 0.004500 0.703964
vt 0.210961 0.703964
vt 0.201006 0.713918
vt 0.201006 0.704924
vt 0.184119 0.704924
vt 0.184119 0.713918
vt 0.201006 0.320138
vt 0.184119 0.320138
vt 0.734184 0.735370
vt 0.734184 0.995030
vt 0.183339 0.702312
vt 0.734184 0.720428
vt 0.742622 0.735370
vt 0.742622 0.720428
vt 0.742622 0.995030
vt 0.183339 0.350435
vt 0.968493 0.842258
vt 0.967259 0.837234
vt 0.972691 0.835888
vt 0.972948 0.839743
vt 0.970771 0.852529
vt 0.957745 0.841635
vt 0.968061 0.772272
vt 0.973713 0.773957
vt 0.976343 0.756354
vt 0.974149 0.770004
vt 0.969838 0.767470
vt 0.972306 0.756784
vt 0.959411 0.767713
vt 0.955693 0.759967
vt 0.970255 0.750195
vt 0.974726 0.853025
vt 0.968720 0.858848
vt 0.975808 0.860020
vt 0.984121 0.752430
vt 0.994745 0.766788
vt 0.987959 0.771350
vt 0.980025 0.758002
vt 0.979327 0.773551
vt 0.978971 0.768695
vt 0.954611 0.849132
vt 0.992311 0.843448
vt 0.982489 0.856985
vt 0.978343 0.851388
vt 0.986203 0.839016
vt 0.977758 0.841298
vt 0.978034 0.836531
vt 0.946495 0.771103
vt 0.944119 0.763664
vt 0.944119 0.845673
vt 0.946342 0.838929
vt 0.977488 0.749338
vt 0.233516 0.713918
vt 0.222028 0.713918
vt 0.222028 0.704924
vt 0.233516 0.704924
vt 0.235052 0.350435
vt 0.235052 0.702311
vt 0.223681 0.702311
vt 0.223681 0.350435
vt 0.233516 0.329133
vt 0.222028 0.329133
vt 0.222028 0.320138
vt 0.233516 0.320138
vt 0.418534 0.330093
vt 0.418534 0.350435
vt 0.409540 0.350435
vt 0.409540 0.330093
vt 0.793636 0.301659
vt 0.793636 0.561319
vt 0.781232 0.561319
vt 0.781232 0.301659
vt 0.221068 0.330093
vt 0.223681 0.331745
vt 0.221068 0.350435
vt 0.406927 0.331745
vt 0.406927 0.350435
vt 0.390912 0.331745
vt 0.391692 0.329133
vt 0.408580 0.329133
vt 0.409540 0.703964
vt 0.406927 0.702311
vt 0.781232 0.286718
vt 0.793636 0.286718
vt 0.221068 0.703964
vt 0.235052 0.331745
vt 0.212074 0.350435
vt 0.212074 0.330093
vt 0.212074 0.703964
vt 0.418534 0.703964
vt 0.408580 0.713918
vt 0.391692 0.713918
vt 0.391692 0.704924
vt 0.408580 0.704924
vt 0.391692 0.320138
vt 0.408580 0.320138
vt 0.909813 0.301659
vt 0.909813 0.561319
vt 0.390912 0.702311
vt 0.909813 0.286718
vt 0.918251 0.301659
vt 0.918251 0.286718
vt 0.918251 0.561319
vt 0.390912 0.350435
vt 0.961486 0.969749
vt 0.965941 0.967235
vt 0.965684 0.963380
vt 0.960252 0.964726
vt 0.950738 0.969126
vt 0.963764 0.980021
vt 0.966706 0.901448
vt 0.961054 0.899763
vt 0.969336 0.883846
vt 0.965299 0.884276
vt 0.962831 0.894962
vt 0.967142 0.897496
vt 0.963248 0.877687
vt 0.948686 0.887459
vt 0.952404 0.895205
vt 0.967719 0.980517
vt 0.961713 0.986340
vt 0.968801 0.987511
vt 0.977114 0.879921
vt 0.973018 0.885494
vt 0.980952 0.898842
vt 0.987738 0.894280
vt 0.971964 0.896187
vt 0.972320 0.901043
vt 0.947604 0.976623
vt 0.985304 0.970940
vt 0.979195 0.966508
vt 0.971336 0.978880
vt 0.975482 0.984476
vt 0.971027 0.964022
vt 0.970751 0.968789
vt 0.937112 0.891156
vt 0.939488 0.898595
vt 0.937112 0.973165
vt 0.939334 0.966421
vt 0.970481 0.876830
s 1
usemtl KitchenCupboard
f 9/1/1 5/2/1 7/3/1 11/4/1
f 25/5/2 3/6/2 11/7/2 19/8/2
f 19/8/3 11/7/3 7/9/3
f 6/10/4 10/11/4 12/12/4 8/13/4
f 4/14/1 2/15/1 14/16/1 16/17/1
f 6/18/5 18/19/5 10/20/5
f 12/21/3 20/22/3 8/23/3
f 27/24/2 26/25/2 19/26/2 20/27/2
f 3/28/2 1/29/2 9/1/2 11/4/2
f 2/30/2 4/31/2 12/12/2 10/11/2
f 31/32/2 30/33/2 33/34/2 36/35/2
f 29/36/2 13/37/2 15/38/2 34/39/2
f 1/40/4 3/41/4 15/42/4 13/43/4
f 24/44/3 21/45/3 30/46/3 31/47/3
f 3/48/5 25/49/5 34/50/5 15/51/5
f 2/52/3 23/53/3 32/54/3 14/55/3
f 26/56/5 27/57/5 36/58/5 33/59/5
f 28/60/5 4/61/5 16/62/5 35/63/5
f 28/64/2 23/65/2 24/66/2 27/67/2
f 14/68/2 32/69/2 35/70/2 16/71/2
f 22/72/3 1/73/3 13/74/3 29/75/3
f 4/76/2 28/77/2 20/22/2 12/21/2
f 18/19/5 6/18/5 5/78/5 17/79/5
f 5/80/5 9/81/5 17/82/5
f 23/83/2 2/84/2 10/20/2 18/19/2
f 21/85/2 24/86/2 18/87/2 17/79/2
f 7/9/3 8/88/3 20/27/3 19/8/3
f 6/89/6 8/90/6 7/91/6 5/92/6
f 21/93/2 22/94/2 25/95/2 26/96/2
f 23/65/4 28/64/4 35/97/4 32/98/4
f 27/67/1 24/66/1 31/99/1 36/100/1
f 27/24/2 20/22/2 28/77/2
f 25/5/2 19/26/2 26/25/2
f 21/85/2 17/82/2 22/101/2
f 23/83/2 18/87/2 24/86/2
f 1/102/2 22/101/2 17/82/2 9/81/2
f 22/94/1 29/103/1 34/104/1 25/95/1
f 30/105/4 21/93/4 26/96/4 33/106/4
f 62/107/1 67/108/1 42/109/1 37/110/1
f 66/111/2 56/112/2 41/113/2 63/114/2
f 64/115/4 65/116/4 38/117/4 44/118/4
f 40/119/3 48/120/3 61/121/3 52/122/3
f 49/123/6 52/124/6 39/125/6 60/126/6
f 44/127/7 54/128/7 56/112/7 43/129/7
f 47/130/8 59/131/8 61/121/8 48/120/8
f 63/114/9 41/113/9 42/109/9 67/108/9
f 53/132/10 47/130/10 48/133/10 50/134/10
f 61/121/8 59/131/8 45/135/8 46/136/8
f 49/123/6 58/137/6 40/138/6 52/124/6
f 56/112/7 54/128/7 42/139/7 41/113/7
f 66/111/2 68/140/2 43/129/2 56/112/2
f 54/128/5 44/127/5 38/141/5 51/142/5
f 54/128/5 51/142/5 37/143/5 42/139/5
f 52/122/3 61/121/3 46/136/3 39/144/3
f 39/145/1 46/146/1 55/147/1 60/148/1
f 48/133/4 40/149/4 58/150/4 50/134/4
f 69/151/6 49/123/6 60/126/6 62/152/6
f 45/135/9 57/153/9 55/147/9 46/146/9
f 68/140/10 53/132/10 50/134/10 64/115/10
f 69/151/6 65/154/6 58/137/6 49/123/6
f 51/155/6 38/156/6 65/154/6 69/151/6
f 43/129/10 68/140/10 64/115/10 44/118/10
f 51/155/6 69/151/6 62/152/6 37/157/6
f 57/153/9 63/114/9 67/108/9 55/147/9
f 50/134/4 58/150/4 65/116/4 64/115/4
f 60/148/1 55/147/1 67/108/1 62/107/1
f 70/158/2 57/153/2 45/135/2 59/131/2
f 53/132/2 70/158/2 59/131/2 47/130/2
f 66/111/2 63/114/2 57/153/2 70/158/2
f 68/140/2 66/111/2 70/158/2 53/132/2
f 85/159/11 94/160/12 101/161/13 100/162/14
f 94/160/15 85/159/16 82/163/17 75/164/18
f 94/160/12 93/165/19 102/166/20 101/161/13
f 95/167/21 96/168/22 86/169/23 81/170/21
f 81/170/24 76/171/25 71/172/26 90/173/26
f 82/163/27 85/159/11 100/162/14 98/174/27
f 89/175/28 82/163/28 98/174/28 99/176/28
f 88/177/29 73/178/29 77/179/30 79/180/31
f 79/180/31 77/179/30 92/181/32 84/182/33
f 75/164/18 82/163/17 89/175/34 72/183/34
f 74/184/35 87/185/35 80/186/36 78/187/37
f 86/169/38 93/165/39 76/171/25 81/170/24
f 78/187/37 80/186/36 83/188/40 91/189/41
f 78/187/37 91/189/41 92/181/32 77/179/30
f 76/171/1 77/190/1 73/191/1 71/172/1
f 91/189/42 101/161/43 102/166/44 92/181/45
f 94/160/15 75/164/18 76/171/25 93/165/39
f 74/192/4 78/193/4 75/164/4 72/183/4
f 84/182/46 96/168/47 95/167/48 79/180/48
f 87/185/49 99/176/49 98/174/49 80/186/49
f 81/170/50 90/173/50 70/194/50 95/167/50
f 80/186/51 98/174/51 100/162/52 83/188/53
f 79/180/54 95/167/54 70/194/54 88/177/54
f 92/181/45 102/166/44 96/168/47 84/182/46
f 75/164/6 78/193/6 77/190/6 76/171/6
f 83/188/53 100/162/52 101/161/43 91/189/42
f 93/165/19 86/169/23 96/168/22 102/166/20
f 127/195/1 97/196/1 107/197/1 132/198/1
f 131/199/2 128/200/2 106/201/2 121/202/2
f 129/203/4 109/204/4 103/205/4 130/206/4
f 105/207/5 117/208/5 126/209/5 113/210/5
f 114/211/6 125/212/6 104/213/6 117/214/6
f 109/215/8 108/216/8 121/202/8 119/217/8
f 112/218/7 113/210/7 126/209/7 124/219/7
f 128/200/9 132/198/9 107/197/9 106/201/9
f 118/220/10 115/221/10 113/222/10 112/218/10
f 126/209/7 111/223/7 110/224/7 124/219/7
f 114/211/6 117/214/6 105/225/6 123/226/6
f 121/202/8 106/201/8 107/227/8 119/217/8
f 131/199/2 121/202/2 108/216/2 133/228/2
f 119/217/3 116/229/3 103/230/3 109/215/3
f 119/217/3 107/227/3 97/231/3 116/229/3
f 117/208/5 104/232/5 111/223/5 126/209/5
f 104/233/1 125/234/1 120/235/1 111/236/1
f 113/222/4 115/221/4 123/237/4 105/238/4
f 134/239/6 127/240/6 125/212/6 114/211/6
f 110/224/9 111/236/9 120/235/9 122/241/9
f 133/228/10 129/203/10 115/221/10 118/220/10
f 134/239/6 114/211/6 123/226/6 130/242/6
f 116/243/6 134/239/6 130/242/6 103/244/6
f 108/216/10 109/204/10 129/203/10 133/228/10
f 116/243/6 97/245/6 127/240/6 134/239/6
f 122/241/9 120/235/9 132/198/9 128/200/9
f 115/221/4 129/203/4 130/206/4 123/237/4
f 125/234/1 127/195/1 132/198/1 120/235/1
f 135/246/2 124/219/2 110/224/2 122/241/2
f 118/220/2 112/218/2 124/219/2 135/246/2
f 131/199/2 135/246/2 122/241/2 128/200/2
f 133/228/2 118/220/2 135/246/2 131/199/2
f 150/247/53 164/248/55 165/249/43 159/250/42
f 159/250/41 140/251/37 147/252/36 150/247/40
f 159/250/42 165/249/43 166/253/44 158/254/45
f 160/255/48 146/256/48 151/257/46 161/258/47
f 146/256/31 155/259/29 136/260/29 141/261/30
f 147/252/51 162/262/51 164/248/55 150/247/53
f 154/263/49 163/264/49 162/262/49 147/252/49
f 153/265/26 144/266/24 142/267/25 138/268/26
f 144/266/24 149/269/38 157/270/39 142/267/25
f 140/251/37 137/271/35 154/263/35 147/252/36
f 139/272/34 143/273/18 145/274/17 152/275/34
f 151/257/33 146/256/31 141/261/30 158/254/32
f 143/273/18 156/276/15 148/277/16 145/274/17
f 143/273/18 142/267/25 157/270/39 156/276/15
f 141/261/1 136/260/1 138/278/1 142/279/1
f 156/276/12 157/270/19 166/253/20 165/249/13
f 159/250/41 158/254/32 141/261/30 140/251/37
f 139/280/4 137/271/4 140/251/4 143/281/4
f 149/269/23 144/266/21 160/255/21 161/258/22
f 152/275/28 145/274/28 162/262/28 163/264/28
f 146/256/54 160/255/54 135/282/54 155/259/54
f 145/274/27 148/277/11 164/248/56 162/262/27
f 144/266/50 153/265/50 135/282/50 160/255/50
f 157/270/19 149/269/23 161/258/22 166/253/20
f 140/251/6 141/261/6 142/279/6 143/281/6
f 148/277/11 156/276/12 165/249/13 164/248/56
f 158/254/45 166/253/44 161/258/47 151/257/46
