# Blender 3.6.1
# www.blender.org
mtllib Table2.mtl
o Cube.033
v 0.367807 0.719892 -13.596127
v 0.323610 0.720349 -13.596127
v 0.317693 0.719978 -13.610784
v 0.317693 0.719978 -13.639708
v 0.367807 0.719892 -11.594368
v 0.323611 0.720349 -11.594368
v 0.317693 0.719978 -11.579711
v 0.317693 0.719978 -11.550787
v -0.367807 0.719892 -13.596127
v -0.323611 0.720349 -13.596127
v -0.317693 0.719978 -13.610784
v -0.317693 0.719978 -13.639708
v -0.367807 0.719892 -11.594368
v -0.323610 0.720349 -11.594368
v -0.317693 0.719978 -11.579711
v -0.317693 0.719978 -11.550787
v 0.317698 0.719891 -13.599931
v 0.321499 0.719891 -13.596127
v 0.362077 0.001060 -13.651556
v 0.361972 0.004723 -13.647620
v 0.358169 0.004753 -13.651423
v 0.372499 0.719891 -13.596127
v 0.376315 0.719891 -13.599947
v 0.416774 0.004968 -13.651423
v 0.412972 0.004723 -13.647620
v 0.413081 0.001060 -13.651556
v 0.413081 0.001060 -13.702554
v 0.412972 0.004996 -13.706217
v 0.416774 0.004968 -13.702415
v 0.376315 0.719891 -13.650939
v 0.372514 0.719891 -13.654743
v 0.358169 0.004753 -13.702415
v 0.361971 0.004996 -13.706217
v 0.362077 0.001060 -13.702554
v 0.321514 0.719891 -13.654743
v 0.317698 0.719891 -13.650924
v 0.342856 0.275353 -13.641492
v 0.343072 0.271831 -13.645555
v 0.338845 0.346518 -13.640799
v 0.339058 0.342455 -13.637277
v 0.343072 0.273868 -13.671053
v 0.342859 0.277931 -13.674575
v 0.339062 0.345033 -13.670360
v 0.338845 0.348555 -13.666297
v 0.020103 0.284446 -13.640921
v 0.016301 0.280644 -13.641160
v 0.016301 0.338002 -13.637557
v 0.020103 0.334200 -13.637795
v 0.371270 0.661288 -13.600347
v 0.367692 0.657274 -13.600620
v 0.331093 0.655225 -13.600620
v 0.327084 0.658808 -13.600359
v 0.321063 0.660429 -13.616458
v 0.321268 0.656812 -13.620437
v 0.321268 0.656812 -13.641731
v 0.321043 0.660791 -13.645349
v 0.321499 0.719891 -11.594368
v 0.317698 0.719891 -11.590564
v 0.362078 0.001060 -11.538939
v 0.358170 0.004753 -11.539072
v 0.361972 0.004723 -11.542874
v 0.376315 0.719891 -11.590548
v 0.372499 0.719891 -11.594368
v 0.416774 0.004968 -11.539072
v 0.413081 0.001060 -11.538939
v 0.412972 0.004723 -11.542874
v 0.413081 0.001060 -11.487941
v 0.416774 0.004968 -11.488080
v 0.412972 0.004996 -11.484278
v 0.372514 0.719891 -11.535751
v 0.376315 0.719891 -11.539556
v 0.358170 0.004753 -11.488080
v 0.362078 0.001060 -11.487941
v 0.361972 0.004996 -11.484278
v 0.317698 0.719891 -11.539571
v 0.321514 0.719891 -11.535751
v 0.343072 0.271831 -11.544939
v 0.342856 0.275353 -11.549003
v 0.339058 0.342455 -11.553218
v 0.338845 0.346518 -11.549696
v 0.342859 0.277931 -11.515920
v 0.343072 0.273868 -11.519442
v 0.338845 0.348555 -11.524198
v 0.339062 0.345033 -11.520135
v 0.016301 0.280644 -11.549335
v 0.020103 0.284446 -11.549574
v 0.020103 0.334200 -11.552699
v 0.016301 0.338002 -11.552938
v 0.367692 0.657274 -11.589874
v 0.371270 0.661288 -11.590148
v 0.327084 0.658808 -11.590136
v 0.331093 0.655225 -11.589874
v 0.321268 0.656812 -11.570058
v 0.321063 0.660429 -11.574037
v 0.321043 0.660791 -11.545146
v 0.321268 0.656812 -11.548763
v -0.321499 0.719891 -13.596127
v -0.317698 0.719891 -13.599931
v -0.362078 0.001060 -13.651556
v -0.358170 0.004753 -13.651423
v -0.361972 0.004723 -13.647620
v -0.376315 0.719891 -13.599947
v -0.372499 0.719891 -13.596127
v -0.416774 0.004968 -13.651423
v -0.413081 0.001060 -13.651556
v -0.412972 0.004723 -13.647620
v -0.413081 0.001060 -13.702554
v -0.416774 0.004968 -13.702415
v -0.412972 0.004996 -13.706217
v -0.372514 0.719891 -13.654743
v -0.376315 0.719891 -13.650939
v -0.358170 0.004753 -13.702415
v -0.362078 0.001060 -13.702554
v -0.361972 0.004996 -13.706217
v -0.317698 0.719891 -13.650924
v -0.321514 0.719891 -13.654743
v -0.343072 0.271831 -13.645555
v -0.342856 0.275353 -13.641492
v -0.339058 0.342455 -13.637277
v -0.338845 0.346518 -13.640799
v -0.342859 0.277931 -13.674575
v -0.343072 0.273868 -13.671053
v -0.338845 0.348555 -13.666297
v -0.339062 0.345033 -13.670360
v -0.016301 0.280644 -13.641160
v -0.020103 0.284446 -13.640921
v -0.020103 0.334200 -13.637795
v -0.016301 0.338002 -13.637557
v -0.367692 0.657274 -13.600620
v -0.371270 0.661288 -13.600347
v -0.327084 0.658808 -13.600359
v -0.331093 0.655225 -13.600620
v -0.321268 0.656812 -13.620437
v -0.321063 0.660429 -13.616458
v -0.321043 0.660791 -13.645349
v -0.321268 0.656812 -13.641731
v -0.317698 0.719891 -11.590564
v -0.321499 0.719891 -11.594368
v -0.362077 0.001060 -11.538939
v -0.361972 0.004723 -11.542874
v -0.358169 0.004753 -11.539072
v -0.372499 0.719891 -11.594368
v -0.376315 0.719891 -11.590548
v -0.416774 0.004968 -11.539072
v -0.412972 0.004723 -11.542874
v -0.413081 0.001060 -11.538939
v -0.413081 0.001060 -11.487941
v -0.412972 0.004996 -11.484278
v -0.416774 0.004968 -11.488080
v -0.376315 0.719891 -11.539556
v -0.372514 0.719891 -11.535751
v -0.358169 0.004753 -11.488080
v -0.361971 0.004996 -11.484278
v -0.362077 0.001060 -11.487941
v -0.321514 0.719891 -11.535751
v -0.317698 0.719891 -11.539571
v -0.342856 0.275353 -11.549003
v -0.343072 0.271831 -11.544939
v -0.338845 0.346518 -11.549696
v -0.339058 0.342455 -11.553218
v -0.343072 0.273868 -11.519442
v -0.342859 0.277931 -11.515920
v -0.339062 0.345033 -11.520135
v -0.338845 0.348555 -11.524198
v -0.020103 0.284446 -11.549574
v -0.016301 0.280644 -11.549335
v -0.016301 0.338002 -11.552938
v -0.020103 0.334200 -11.552699
v -0.371270 0.661288 -11.590148
v -0.367692 0.657274 -11.589874
v -0.331093 0.655225 -11.589874
v -0.327084 0.658808 -11.590136
v -0.321063 0.660429 -11.574037
v -0.321268 0.656812 -11.570058
v -0.321268 0.656812 -11.548763
v -0.321043 0.660791 -11.545146
v -0.518423 0.763939 -13.931968
v -0.514621 0.767741 -13.931968
v -0.514621 0.763939 -13.935770
v -0.518423 0.723694 -13.931968
v -0.514621 0.723694 -13.935770
v -0.514621 0.719891 -13.931968
v 0.518423 0.763939 -13.931968
v 0.514621 0.763939 -13.935770
v 0.514621 0.767741 -13.931968
v 0.518423 0.723694 -13.931968
v 0.514621 0.719891 -13.931968
v 0.514621 0.723694 -13.935770
v -0.518423 0.763939 -11.258527
v -0.514621 0.763939 -11.254725
v -0.514621 0.767741 -11.258527
v -0.518423 0.723694 -11.258527
v -0.514621 0.719891 -11.258527
v -0.514621 0.723694 -11.254725
v 0.518423 0.763939 -11.258527
v 0.514621 0.767741 -11.258527
v 0.514621 0.763939 -11.254725
v 0.514621 0.723694 -11.254725
v 0.514621 0.719891 -11.258527
v 0.518423 0.723694 -11.258527
vn -0.0000 -0.0627 0.9980
vn -0.0000 -1.0000 -0.0000
vn -0.0000 0.0718 -0.9974
vn 0.9984 0.0565 -0.0000
vn -0.0000 -0.0718 0.9974
vn -0.0000 -0.9968 -0.0796
vn 1.0000 -0.0000 -0.0000
vn -0.0000 0.9968 0.0796
vn -0.0000 0.0949 -0.9955
vn 0.9983 0.0590 -0.0000
vn -0.0000 -0.0949 0.9955
vn -0.9984 -0.0563 -0.0000
vn -0.9984 -0.0565 -0.0000
vn 0.0559 -0.9984 -0.0000
vn -0.0000 -0.9968 0.0796
vn -0.0000 0.0718 0.9974
vn -0.0000 -0.0718 -0.9974
vn -0.0000 0.9968 -0.0796
vn -0.0000 0.0627 0.9980
vn 0.9984 -0.0565 -0.0000
vn -0.9983 0.0590 -0.0000
vn -1.0000 -0.0000 -0.0000
vn -0.9984 0.0565 -0.0000
vn -0.0559 -0.9984 -0.0000
vn -0.0000 1.0000 -0.0000
vn 0.9984 -0.0563 -0.0000
vn -0.0000 -0.0000 -1.0000
vn -0.0000 -0.0949 -0.9955
vn -0.0000 -0.0000 1.0000
vn -0.0000 0.0627 -0.9980
vn -0.0000 0.0949 0.9955
vn -0.5608 -0.6136 0.5559
vn 0.5941 -0.5806 0.5567
vn 0.5934 -0.5395 -0.5974
vn -0.5616 -0.5717 -0.5981
vn -0.5607 -0.6136 -0.5559
vn 0.5941 -0.5806 -0.5567
vn 0.5934 -0.5395 0.5974
vn -0.5616 -0.5717 0.5981
vn 0.5607 -0.6136 0.5559
vn -0.5941 -0.5806 0.5567
vn -0.5934 -0.5395 -0.5974
vn 0.5616 -0.5717 -0.5981
vn 0.5608 -0.6136 -0.5559
vn -0.5941 -0.5806 -0.5567
vn -0.5934 -0.5395 0.5974
vn 0.5616 -0.5717 0.5981
vn -0.5774 0.5773 -0.5773
vn -0.5774 -0.5773 -0.5773
vn 0.5774 0.5773 -0.5773
vn 0.5774 -0.5773 -0.5773
vn -0.5774 0.5773 0.5773
vn -0.5774 -0.5773 0.5773
vn 0.5774 0.5773 0.5773
vn 0.5774 -0.5773 0.5773
vn -0.6868 -0.7268 -0.0000
vn -0.7046 -0.0905 0.7038
vn -0.0000 -0.6812 -0.7321
vn 0.7074 -0.0109 0.7067
vn -0.7074 0.0109 -0.7067
vn -0.0000 -0.7321 0.6812
vn 0.7045 0.0906 -0.7039
vn 0.7268 -0.6868 -0.0000
vn -0.7046 -0.0905 -0.7038
vn -0.0000 -0.6812 0.7321
vn 0.7074 -0.0109 -0.7067
vn -0.7074 0.0109 0.7067
vn -0.0000 -0.7321 -0.6812
vn 0.7045 0.0906 0.7039
vn -0.0000 0.7556 0.6550
vn -0.0000 0.6550 -0.7556
vn -0.0000 -0.6550 0.7556
vn -0.0000 -0.0627 -0.9980
vn 0.7071 0.7071 -0.0000
vn 0.7071 -0.7071 -0.0000
vn -0.6663 -0.7457 -0.0000
vn 0.7466 -0.6653 -0.0000
vn 0.6868 -0.7268 -0.0000
vn 0.7046 -0.0905 0.7038
vn -0.7074 -0.0109 0.7067
vn 0.7074 0.0109 -0.7067
vn -0.7045 0.0906 -0.7039
vn -0.7268 -0.6868 -0.0000
vn -0.0000 -0.7556 0.6550
vn -0.0000 0.7556 -0.6550
vn -0.0000 0.6550 0.7556
vn -0.0000 -0.6550 -0.7556
vn -0.0000 -0.7399 0.6727
vn -0.0000 -0.6727 -0.7399
vn 0.7046 -0.0905 -0.7038
vn -0.7074 -0.0109 -0.7067
vn 0.7074 0.0109 0.7067
vn -0.7045 0.0906 0.7039
vn -0.7071 0.7071 -0.0000
vn -0.7071 -0.7071 -0.0000
vn -0.0000 -0.7399 -0.6727
vn 0.6663 -0.7457 -0.0000
vn -0.7466 -0.6653 -0.0000
vn -0.0000 -0.6727 0.7399
vn -0.7071 -0.0000 -0.7071
vn 0.7071 -0.0000 -0.7071
vn -0.0000 0.7071 -0.7071
vn -0.0000 -0.7071 -0.7071
vn -0.7071 -0.0000 0.7071
vn 0.7071 -0.0000 0.7071
vn -0.0000 0.7071 0.7071
vn -0.0000 -0.7071 0.7071
vn -0.0000 -0.7556 -0.6550
vt 0.841035 0.592199
vt 0.841035 0.985269
vt 0.802494 0.983092
vt 0.802494 0.594376
vt 0.863009 0.048660
vt 0.859899 0.008285
vt 0.819520 0.011396
vt 0.822630 0.051771
vt 0.744338 0.054770
vt 0.739533 0.580074
vt 0.780892 0.577841
vt 0.780900 0.054326
vt 0.784531 0.054365
vt 0.785208 0.577886
vt 0.826465 0.580674
vt 0.820900 0.056050
vt 0.824661 0.055936
vt 0.830758 0.581018
vt 0.871810 0.582903
vt 0.862533 0.053072
vt 0.725382 0.985393
vt 0.725382 0.592075
vt 0.740044 0.592075
vt 0.740044 0.985393
vt 0.981405 0.006443
vt 0.981405 0.986347
vt 0.958092 0.984882
vt 0.958092 0.007907
vt 0.784750 0.982970
vt 0.784750 0.594498
vt 0.799412 0.594498
vt 0.799412 0.982970
vt 0.471979 0.513988
vt 0.471979 0.966730
vt 0.430056 0.964368
vt 0.430056 0.516350
vt 0.617839 0.015340
vt 0.617839 0.974691
vt 0.589823 0.972677
vt 0.589823 0.017354
vt 0.896670 0.006331
vt 0.911946 0.006331
vt 0.911946 0.986459
vt 0.896670 0.986459
vt 0.494577 0.966744
vt 0.494577 0.513974
vt 0.536755 0.516350
vt 0.536755 0.964368
vt 0.640466 0.974697
vt 0.640466 0.015334
vt 0.669882 0.017354
vt 0.669882 0.972677
vt 0.490785 0.513829
vt 0.490785 0.966889
vt 0.475770 0.966889
vt 0.475770 0.513829
vt 0.700800 0.045796
vt 0.740510 0.054494
vt 0.735228 0.580426
vt 0.697169 0.582903
vt 0.620405 0.974822
vt 0.620405 0.015209
vt 0.637899 0.015209
vt 0.637899 0.974822
vt 0.740044 0.592074
vt 0.863010 0.048660
vt 0.822630 0.051771
vt 0.819520 0.011396
vt 0.859899 0.008285
vt 0.744338 0.054770
vt 0.780900 0.054326
vt 0.780892 0.577841
vt 0.739533 0.580074
vt 0.784531 0.054365
vt 0.820901 0.056050
vt 0.826465 0.580674
vt 0.785208 0.577886
vt 0.824661 0.055936
vt 0.862533 0.053072
vt 0.871810 0.582903
vt 0.830758 0.581018
vt 0.781667 0.594374
vt 0.781667 0.983095
vt 0.743126 0.985271
vt 0.743126 0.592197
vt 0.490267 0.515772
vt 0.490267 0.968832
vt 0.475252 0.968832
vt 0.475252 0.515772
vt 0.700800 0.045796
vt 0.740510 0.054494
vt 0.641865 0.015340
vt 0.669882 0.017354
vt 0.641865 0.974691
vt 0.914465 0.006443
vt 0.937778 0.007907
vt 0.937778 0.984882
vt 0.914465 0.986347
vt 0.863010 0.048660
vt 0.822630 0.051771
vt 0.819520 0.011396
vt 0.859899 0.008286
vt 0.744338 0.054770
vt 0.780900 0.054326
vt 0.820901 0.056050
vt 0.871810 0.582903
vt 0.383837 0.500975
vt 0.383837 0.007853
vt 0.573684 0.007853
vt 0.573684 0.500975
vt 0.621805 0.974822
vt 0.621805 0.015209
vt 0.639299 0.015209
vt 0.639299 0.974822
vt 0.955573 0.984771
vt 0.940297 0.984771
vt 0.940297 0.008019
vt 0.955573 0.008019
vt 0.700800 0.045796
vt 0.697169 0.582903
vt 0.735228 0.580426
vt 0.740510 0.054494
vt 0.589823 0.017354
vt 0.619239 0.015334
vt 0.619239 0.974697
vt 0.017558 0.893245
vt 0.017558 0.880271
vt 0.349352 0.880271
vt 0.349352 0.893245
vt 0.863009 0.048660
vt 0.859899 0.008285
vt 0.819520 0.011396
vt 0.822630 0.051771
vt 0.744338 0.054770
vt 0.780900 0.054325
vt 0.784531 0.054365
vt 0.826465 0.580674
vt 0.820900 0.056049
vt 0.824660 0.055936
vt 0.830758 0.581018
vt 0.862533 0.053072
vt 0.471461 0.968687
vt 0.429282 0.966311
vt 0.429282 0.518293
vt 0.471461 0.515917
vt 0.017558 0.002002
vt 0.349352 0.002002
vt 0.349352 0.014976
vt 0.017559 0.014976
vt 0.017559 0.016709
vt 0.349352 0.016709
vt 0.349352 0.878538
vt 0.017558 0.878538
vt 0.364823 0.017108
vt 0.364768 0.878170
vt 0.351171 0.878140
vt 0.351227 0.017078
vt 0.002087 0.878139
vt 0.002143 0.017077
vt 0.015739 0.017107
vt 0.015684 0.878168
vt 0.743126 0.985271
vt 0.743126 0.592197
vt 0.781667 0.983095
vt 0.535982 0.518293
vt 0.535982 0.966311
vt 0.494058 0.968673
vt 0.494058 0.515931
vt 0.866638 0.051975
vt 0.782767 0.050225
vt 0.740510 0.054494
vt 0.742862 0.050438
vt 0.866638 0.051975
vt 0.782767 0.050225
vt 0.742862 0.050439
vt 0.782767 0.050225
vt 0.866638 0.051975
vt 0.782767 0.050225
vt 0.742862 0.050438
vt 0.016043 0.880027
vt 0.001763 0.880075
vt 0.000268 0.878536
vt 0.350847 0.880077
vt 0.366643 0.878540
vt 0.365127 0.880028
vt 0.016063 0.015170
vt 0.000268 0.016707
vt 0.001784 0.015218
vt 0.350868 0.015220
vt 0.365147 0.015171
vt 0.366643 0.016710
vt 0.701925 0.041178
vt 0.700800 0.045796
vt 0.876109 0.582782
vt 0.735228 0.580426
vt 0.701925 0.041178
vt 0.876109 0.582782
vt 0.802494 0.594376
vt 0.802494 0.983092
vt 0.841035 0.985269
vt 0.983924 0.006331
vt 0.983924 0.986459
vt 0.701925 0.041178
vt 0.844118 0.592075
vt 0.844118 0.985394
vt 0.701925 0.041177
vt 0.349352 0.894979
vt 0.017558 0.894979
vt 0.017558 0.000268
vt 0.349352 0.000268
vt 0.844118 0.985393
s 0
usemtl Material.013
f 118/1/1 37/2/1 40/3/1 119/4/1
f 19/5/2 34/6/2 27/7/2 26/8/2
f 33/9/3 35/10/3 31/11/3 28/12/3
f 29/13/4 30/14/4 23/15/4 24/16/4
f 25/17/5 22/18/5 18/19/5 20/20/5
f 38/21/6 117/22/6 122/23/6 41/24/6
f 86/25/7 45/26/7 48/27/7 87/28/7
f 44/29/8 123/30/8 120/31/8 39/32/8
f 56/33/9 135/34/9 12/35/9 4/36/9
f 90/37/10 49/38/10 1/39/10 5/40/10
f 85/41/2 166/42/2 125/43/2 46/44/2
f 134/45/11 53/46/11 3/47/11 11/48/11
f 52/49/12 91/50/12 6/51/12 2/52/12
f 54/53/2 133/54/2 136/55/2 55/56/2
f 60/57/13 72/58/13 75/59/13 58/60/13
f 50/61/14 89/62/14 92/63/14 51/64/14
f 77/22/15 82/65/15 161/24/15 158/21/15
f 59/66/2 65/67/2 67/68/2 73/69/2
f 74/70/16 69/71/16 70/72/16 76/73/16
f 68/74/4 64/75/4 62/76/4 71/77/4
f 66/78/17 61/79/17 57/80/17 63/81/17
f 80/31/18 159/32/18 164/29/18 83/30/18
f 84/82/19 163/83/19 162/84/19 81/85/19
f 96/86/2 175/87/2 174/88/2 93/89/2
f 100/90/20 112/91/20 115/59/20 98/60/20
f 169/92/21 13/93/21 9/52/21 130/94/21
f 165/95/22 168/96/22 127/97/22 126/98/22
f 99/99/2 105/100/2 107/101/2 113/102/2
f 114/103/3 109/104/3 110/72/3 116/73/3
f 108/74/23 104/105/23 102/76/23 111/77/23
f 106/78/5 101/79/5 97/106/5 103/81/5
f 187/107/2 199/108/2 193/109/2 182/110/2
f 132/111/24 171/112/24 170/113/24 129/114/24
f 47/115/25 128/116/25 167/117/25 88/118/25
f 141/119/20 137/120/20 156/121/20 152/122/20
f 10/39/26 14/123/26 172/124/26 131/125/26
f 181/126/27 179/127/27 184/128/27 188/129/27
f 139/130/2 154/131/2 147/132/2 146/133/2
f 153/134/16 155/10/16 151/11/16 148/135/16
f 149/136/23 150/14/23 143/137/23 144/138/23
f 145/139/17 142/140/17 138/19/17 140/141/17
f 173/142/28 15/143/28 7/144/28 94/145/28
f 194/146/29 198/147/29 197/148/29 190/149/29
f 191/150/25 196/151/25 185/152/25 178/153/25
f 200/154/7 186/155/7 183/156/7 195/157/7
f 180/158/22 192/159/22 189/160/22 177/161/22
f 42/162/30 121/163/30 124/82/30 43/164/30
f 8/165/31 16/166/31 176/167/31 95/168/31
f 19/5/32 20/20/32 21/169/32
f 24/16/33 25/17/33 26/8/33
f 27/170/34 28/12/34 29/13/34
f 32/171/35 33/9/35 34/172/35
f 59/66/36 60/173/36 61/79/36
f 64/75/37 65/67/37 66/78/37
f 67/174/38 68/74/38 69/71/38
f 72/58/39 73/175/39 74/70/39
f 99/99/40 100/173/40 101/79/40
f 104/105/41 105/100/41 106/78/41
f 107/176/42 108/74/42 109/104/42
f 112/91/43 113/175/43 114/103/43
f 139/130/44 140/141/44 141/177/44
f 144/138/45 145/139/45 146/133/45
f 147/178/46 148/135/46 149/136/46
f 152/122/47 153/134/47 154/179/47
f 177/161/48 178/153/48 179/180/48
f 180/158/49 181/181/49 182/182/49
f 183/156/50 184/183/50 185/152/50
f 186/155/51 187/184/51 188/185/51
f 189/160/52 190/186/52 191/150/52
f 192/159/53 193/187/53 194/188/53
f 195/157/54 196/151/54 197/189/54
f 198/190/55 199/191/55 200/154/55
f 34/172/56 19/192/56 21/193/56 32/171/56
f 17/194/57 21/169/57 20/20/57 18/19/57
f 27/170/58 34/172/58 33/9/58 28/12/58
f 24/16/59 23/15/59 22/18/59 25/17/59
f 35/10/60 33/9/60 32/171/60 36/195/60
f 19/5/61 26/8/61 25/17/61 20/20/61
f 30/14/62 29/13/62 28/12/62 31/11/62
f 26/8/63 27/170/63 29/13/63 24/16/63
f 72/58/56 60/57/56 59/196/56 73/175/56
f 57/80/64 61/79/64 60/173/64 58/197/64
f 69/71/65 74/70/65 73/175/65 67/174/65
f 66/78/66 63/81/66 62/76/66 64/75/66
f 75/59/67 72/58/67 74/70/67 76/73/67
f 61/79/68 66/78/68 65/67/68 59/66/68
f 70/72/69 69/71/69 68/74/69 71/77/69
f 64/75/63 68/74/63 67/174/63 65/67/63
f 83/30/70 164/29/70 163/83/70 84/82/70
f 159/32/71 80/31/71 79/198/71 160/199/71
f 161/24/72 82/65/72 81/85/72 162/84/72
f 157/200/73 160/199/73 79/198/73 78/1/73
f 87/28/74 48/27/74 47/115/74 88/118/74
f 45/26/75 86/25/75 85/201/75 46/202/75
f 91/50/76 52/49/76 51/64/76 92/63/76
f 49/38/77 90/37/77 89/62/77 50/61/77
f 112/91/78 100/90/78 99/203/78 113/175/78
f 97/106/79 101/79/79 100/173/79 98/197/79
f 109/104/58 114/103/58 113/175/58 107/176/58
f 106/78/80 103/81/80 102/76/80 104/105/80
f 115/59/81 112/91/81 114/103/81 116/73/81
f 101/79/61 106/78/61 105/100/61 99/99/61
f 110/72/82 109/104/82 108/74/82 111/77/82
f 104/105/83 108/74/83 107/176/83 105/100/83
f 37/2/84 118/1/84 117/204/84 38/205/84
f 43/164/85 124/82/85 123/30/85 44/29/85
f 119/4/86 40/3/86 39/32/86 120/31/86
f 121/163/87 42/162/87 41/24/87 122/23/87
f 53/46/88 134/45/88 133/54/88 54/53/88
f 135/34/89 56/33/89 55/56/89 136/55/89
f 154/179/78 139/206/78 141/119/78 152/122/78
f 137/194/90 141/177/90 140/141/90 138/19/90
f 147/178/65 154/179/65 153/134/65 148/135/65
f 144/138/91 143/137/91 142/140/91 145/139/91
f 155/10/92 153/134/92 152/122/92 156/121/92
f 139/130/68 146/133/68 145/139/68 140/141/68
f 150/14/93 149/136/93 148/135/93 151/11/93
f 146/133/83 147/178/83 149/136/83 144/138/83
f 167/117/94 128/116/94 127/97/94 168/96/94
f 125/43/95 166/42/95 165/95/95 126/98/95
f 93/89/96 174/88/96 173/142/96 94/145/96
f 171/112/97 132/111/97 131/125/97 172/124/97
f 129/114/98 170/113/98 169/92/98 130/94/98
f 175/87/99 96/86/99 95/168/99 176/167/99
f 179/180/100 181/181/100 180/158/100 177/161/100
f 183/156/101 186/155/101 188/185/101 184/183/101
f 178/153/102 185/152/102 184/128/102 179/127/102
f 187/207/103 182/208/103 181/126/103 188/129/103
f 189/160/104 192/159/104 194/188/104 190/186/104
f 197/189/105 198/190/105 200/154/105 195/157/105
f 190/149/106 197/148/106 196/151/106 191/150/106
f 186/155/75 200/154/75 199/191/75 187/184/75
f 177/161/94 189/160/94 191/150/94 178/153/94
f 198/147/107 194/146/107 193/209/107 199/210/107
f 192/159/95 180/158/95 182/182/95 193/187/95
f 195/157/74 183/156/74 185/152/74 196/151/74
f 21/193/13 17/120/13 36/195/13 32/171/13
f 77/204/108 158/211/108 157/200/108 78/1/108
