# Blender 3.6.1
# www.blender.org
mtllib Cabinet2.mtl
o KitchenCabinet2
v 0.765361 0.775246 -4.912564
v 0.765361 0.024102 -4.912564
v 0.765361 0.775246 -4.161421
v 0.765361 0.024102 -4.161421
v 0.111975 0.799695 -4.937013
v 0.111975 -0.000346 -4.937013
v 0.111975 0.799695 -4.136972
v 0.111975 -0.000346 -4.136972
v 0.765361 0.799695 -4.937013
v 0.765361 -0.000346 -4.937013
v 0.765361 0.799695 -4.136972
v 0.765361 -0.000346 -4.136972
v 0.143761 0.775246 -4.912564
v 0.143761 0.024102 -4.912564
v 0.143761 0.775246 -4.161421
v 0.143761 0.024102 -4.161421
v 0.111975 0.799695 -4.937013
v 0.111975 0.799695 -4.136972
v 0.111975 0.832010 -4.136972
v 0.111975 0.832010 -4.937013
v 0.796427 0.812224 -4.937013
v 0.786195 0.799695 -4.937013
v 0.793430 0.803364 -4.937013
v 0.786195 0.799695 -4.136972
v 0.796427 0.812224 -4.136972
v 0.793430 0.803364 -4.136972
v 0.796427 0.819481 -4.136972
v 0.786195 0.832010 -4.136972
v 0.793430 0.828340 -4.136972
v 0.786195 0.832010 -4.937013
v 0.796427 0.819481 -4.937013
v 0.793430 0.828340 -4.937013
v 0.765361 -0.000346 -4.136972
v 0.765361 0.799695 -4.136972
v 0.765361 -0.000346 -4.536171
v 0.765361 0.799695 -4.536171
v 0.784615 0.003190 -4.140509
v 0.781079 -0.000346 -4.136972
v 0.784615 0.796158 -4.140509
v 0.781079 0.799695 -4.136972
v 0.784615 0.003190 -4.532635
v 0.781079 -0.000346 -4.536171
v 0.784615 0.796158 -4.532635
v 0.781079 0.799695 -4.536171
v 0.765361 0.748097 -4.482936
v 0.784615 0.748097 -4.482936
v 0.781079 0.799695 -4.482936
v 0.765361 0.748097 -4.136972
v 0.765361 0.748097 -4.536171
v 0.784615 0.796158 -4.482936
v 0.781079 0.748097 -4.136972
v 0.781079 -0.000346 -4.482936
v 0.784615 0.748097 -4.140509
v 0.784615 0.003190 -4.482936
v 0.765361 0.799695 -4.482936
v 0.784615 0.748097 -4.532635
v 0.765361 -0.000346 -4.482936
v 0.781079 0.748097 -4.536171
v 0.784615 0.748097 -4.502831
v 0.784615 0.741063 -4.499917
v 0.784615 0.738149 -4.492883
v 0.784615 0.741063 -4.485849
v 0.784615 0.755131 -4.485849
v 0.784615 0.758044 -4.492883
v 0.784615 0.755131 -4.499917
v 0.791111 0.748097 -4.502831
v 0.791111 0.741063 -4.499917
v 0.791111 0.738149 -4.492883
v 0.791111 0.741063 -4.485849
v 0.791111 0.748097 -4.482936
v 0.791111 0.755131 -4.485849
v 0.791111 0.758044 -4.492883
v 0.791111 0.755131 -4.499917
v 0.801189 0.736664 -4.504316
v 0.800861 0.748097 -4.507997
v 0.791440 0.748097 -4.507997
v 0.800861 0.732983 -4.492883
v 0.801189 0.736664 -4.481450
v 0.800861 0.748097 -4.477769
v 0.801189 0.759530 -4.481450
v 0.800861 0.763211 -4.492883
v 0.801189 0.759530 -4.504316
v 0.791111 0.736664 -4.504316
v 0.791440 0.732983 -4.492883
v 0.791111 0.736664 -4.481450
v 0.791440 0.748097 -4.477769
v 0.791111 0.759530 -4.481450
v 0.791440 0.763211 -4.492883
v 0.791111 0.759530 -4.504316
v 0.804059 0.748097 -4.492883
v 0.765361 -0.000346 -4.937013
v 0.765361 0.799695 -4.937013
v 0.765361 -0.000346 -4.537814
v 0.765361 0.799695 -4.537814
v 0.784615 0.003190 -4.933476
v 0.781079 -0.000346 -4.937013
v 0.784615 0.796158 -4.933476
v 0.781079 0.799695 -4.937013
v 0.784615 0.003190 -4.541350
v 0.781079 -0.000346 -4.537814
v 0.784615 0.796158 -4.541350
v 0.781079 0.799695 -4.537814
v 0.765361 0.748097 -4.591049
v 0.784615 0.748097 -4.591049
v 0.781079 0.799695 -4.591049
v 0.765361 0.748097 -4.937013
v 0.765361 0.748097 -4.537814
v 0.784615 0.796158 -4.591049
v 0.781079 0.748097 -4.937013
v 0.781079 -0.000346 -4.591049
v 0.784615 0.748097 -4.933476
v 0.784615 0.003190 -4.591049
v 0.765361 0.799695 -4.591049
v 0.784615 0.748097 -4.541350
v 0.765361 -0.000346 -4.591049
v 0.781079 0.748097 -4.537814
v 0.784615 0.748097 -4.571155
v 0.784615 0.741063 -4.574068
v 0.784615 0.738149 -4.581102
v 0.784615 0.741063 -4.588136
v 0.784615 0.755131 -4.588136
v 0.784615 0.758044 -4.581102
v 0.784615 0.755131 -4.574068
v 0.791111 0.748097 -4.571155
v 0.791111 0.741063 -4.574068
v 0.791111 0.738149 -4.581102
v 0.791111 0.741063 -4.588136
v 0.791111 0.748097 -4.591049
v 0.791111 0.755131 -4.588136
v 0.791111 0.758044 -4.581102
v 0.791111 0.755131 -4.574068
v 0.801189 0.736664 -4.569669
v 0.800861 0.748097 -4.565988
v 0.791440 0.748097 -4.565988
v 0.800861 0.732983 -4.581102
v 0.801189 0.736664 -4.592535
v 0.800861 0.748097 -4.596216
v 0.801189 0.759530 -4.592535
v 0.800861 0.763211 -4.581102
v 0.801189 0.759530 -4.569669
v 0.791111 0.736664 -4.569669
v 0.791440 0.732983 -4.581102
v 0.791111 0.736664 -4.592535
v 0.791440 0.748097 -4.596216
v 0.791111 0.759530 -4.592535
v 0.791440 0.763211 -4.581102
v 0.791111 0.759530 -4.569669
v 0.804059 0.748097 -4.581102
v 0.111975 0.832010 -4.136972
v 0.111975 0.860285 -4.136972
v 0.111975 0.832010 -4.937013
v 0.111975 0.860285 -4.937013
v 0.123328 0.832010 -4.136972
v 0.123328 0.832010 -4.937013
v 0.111975 0.815852 -4.937013
v 0.111975 0.815852 -4.136972
v 0.786195 0.815852 -4.136972
v 0.786195 0.815852 -4.937013
v 0.765361 0.542937 -4.937013
v 0.765361 0.252445 -4.937013
v 0.765361 0.542937 -4.136972
v 0.765361 0.252445 -4.136972
v 0.765361 0.531613 -4.912564
v 0.765361 0.554261 -4.912564
v 0.765361 0.241121 -4.912564
v 0.765361 0.263769 -4.912564
v 0.765361 0.554261 -4.161421
v 0.765361 0.531613 -4.161421
v 0.765361 0.263769 -4.161421
v 0.765361 0.241121 -4.161421
v 0.143761 0.554261 -4.912564
v 0.143761 0.531613 -4.912564
v 0.143761 0.263769 -4.912564
v 0.143761 0.241121 -4.912564
v 0.143761 0.531613 -4.161421
v 0.143761 0.554261 -4.161421
v 0.143761 0.241121 -4.161421
v 0.143761 0.263769 -4.161421
vn -0.0000 1.0000 -0.0000
vn 1.0000 -0.0000 -0.0000
vn -0.0000 -0.0000 1.0000
vn -0.0000 -1.0000 -0.0000
vn -0.0000 -0.0000 -1.0000
vn -1.0000 -0.0000 -0.0000
vn 0.2366 -0.9716 -0.0000
vn 0.9871 -0.1603 -0.0000
vn 0.9473 -0.3204 -0.0000
vn 0.4523 -0.8918 -0.0000
vn 0.2366 0.9716 -0.0000
vn 0.4523 0.8918 -0.0000
vn 0.9473 0.3204 -0.0000
vn 0.9871 0.1603 -0.0000
vn 0.7071 -0.0000 0.7071
vn 0.7071 -0.0000 -0.7071
vn 0.7071 -0.7071 -0.0000
vn 0.7071 0.7071 -0.0000
vn -0.9997 -0.0159 0.0159
vn -0.9993 -0.0365 -0.0000
vn -0.9993 -0.0000 0.0365
vn -0.9997 0.0159 0.0159
vn -0.0000 0.3827 -0.9239
vn -0.0000 0.9239 -0.3827
vn -0.0000 0.9239 0.3827
vn -0.0000 0.3827 0.9239
vn -0.0000 -0.3827 0.9239
vn -0.0000 -0.9239 0.3827
vn -0.0000 -0.9239 -0.3827
vn -0.0000 -0.3827 -0.9239
vn -0.0000 -0.3065 -0.9519
vn -0.0000 -0.9519 -0.3065
vn -0.0000 -0.9519 0.3065
vn -0.0000 -0.3065 0.9519
vn -0.0000 0.3065 0.9519
vn -0.0000 0.9519 0.3065
vn -0.0000 0.9519 -0.3065
vn -0.0000 0.3065 -0.9519
vn -0.9997 -0.0159 -0.0159
vn -0.9993 -0.0000 -0.0365
vn -0.9997 0.0159 -0.0159
vn -0.9993 0.0365 -0.0000
vn 0.9783 -0.2071 -0.0000
vn 0.9890 -0.1047 -0.1047
vn 0.9890 -0.1047 0.1047
vn 0.9783 -0.0000 -0.2070
vn 0.9890 0.1047 -0.1047
vn 0.9890 0.1047 0.1047
vn 0.9783 -0.0000 0.2070
vn 0.9783 0.2071 -0.0000
vn 0.9280 0.3726 -0.0000
vt 0.996444 0.155911
vt 0.996444 0.367690
vt 0.784665 0.367690
vt 0.784665 0.155911
vt 0.079292 0.529963
vt 0.020794 0.529963
vt 0.014323 0.523491
vt 0.079292 0.523491
vt 0.014323 0.311712
vt 0.079292 0.311712
vt 0.233601 0.774565
vt 0.233601 0.986344
vt 0.021822 0.986344
vt 0.021822 0.774565
vt 0.776795 0.367085
vt 0.577959 0.367085
vt 0.577959 0.165608
vt 0.776795 0.165608
vt 0.290219 0.068543
vt 0.290219 0.280322
vt 0.226300 0.280322
vt 0.226102 0.523491
vt 0.162183 0.523491
vt 0.226102 0.311712
vt 0.156188 0.529963
vt 0.085287 0.529963
vt 0.085287 0.523491
vt 0.156188 0.523491
vt 0.791136 0.149439
vt 0.989972 0.149439
vt 0.227130 0.992816
vt 0.028294 0.992816
vt 0.247134 0.311850
vt 0.318036 0.311850
vt 0.318036 0.510687
vt 0.247134 0.510687
vt 0.446241 0.011496
vt 0.504738 0.011496
vt 0.504738 0.210332
vt 0.446241 0.210332
vt 0.789332 0.989886
vt 0.590496 0.989886
vt 0.590496 0.788408
vt 0.789332 0.788408
vt 0.446843 0.750793
vt 0.375942 0.750793
vt 0.375942 0.549316
vt 0.446843 0.549316
vt 0.347464 0.513019
vt 0.343187 0.513019
vt 0.343187 0.294486
vt 0.347464 0.294486
vt 0.217839 0.077432
vt 0.006060 0.077432
vt 0.006060 0.073155
vt 0.217839 0.073155
vt 0.567798 0.294486
vt 0.567798 0.513019
vt 0.563521 0.513019
vt 0.563521 0.294486
vt 0.566837 0.516335
vt 0.564492 0.515364
vt 0.217839 0.300241
vt 0.006060 0.300241
vt 0.006060 0.081709
vt 0.217839 0.081709
vt 0.351741 0.520017
vt 0.563521 0.520017
vt 0.563521 0.522555
vt 0.351741 0.522555
vt 0.563521 0.525093
vt 0.351741 0.525093
vt 0.351741 0.513019
vt 0.563521 0.515557
vt 0.351741 0.515557
vt 0.563521 0.518096
vt 0.351741 0.518095
vt 0.225279 0.543099
vt 0.225279 0.548194
vt 0.133699 0.548194
vt 0.133699 0.543099
vt 0.225279 0.746859
vt 0.134635 0.746859
vt 0.134635 0.549674
vt 0.225279 0.549674
vt 0.225279 0.761061
vt 0.225279 0.766156
vt 0.133699 0.766156
vt 0.133699 0.761061
vt 0.245010 0.760518
vt 0.239915 0.760518
vt 0.239915 0.746859
vt 0.245010 0.746859
vt 0.488244 0.975992
vt 0.474152 0.975992
vt 0.474152 0.777871
vt 0.488244 0.777871
vt 0.238435 0.746859
vt 0.238435 0.759582
vt 0.225279 0.759582
vt 0.133155 0.760518
vt 0.133155 0.746859
vt 0.134635 0.759582
vt 0.239371 0.761061
vt 0.238435 0.549674
vt 0.239915 0.548738
vt 0.488244 0.989651
vt 0.474152 0.989651
vt 0.133155 0.548738
vt 0.128060 0.760518
vt 0.128060 0.746859
vt 0.128060 0.548738
vt 0.245010 0.548738
vt 0.239371 0.543099
vt 0.239371 0.548194
vt 0.239371 0.766156
vt 0.579825 0.975992
vt 0.579825 0.777871
vt 0.579825 0.989651
vt 0.690904 0.134026
vt 0.690904 0.151652
vt 0.678290 0.151652
vt 0.678290 0.134026
vt 0.690904 0.116401
vt 0.678290 0.116401
vt 0.690904 0.098775
vt 0.678290 0.098775
vt 0.708501 0.063524
vt 0.690904 0.063524
vt 0.690904 0.045899
vt 0.708501 0.045899
vt 0.708501 0.081150
vt 0.690904 0.081150
vt 0.708501 0.098775
vt 0.708501 0.116401
vt 0.708501 0.134026
vt 0.708501 0.151652
vt 0.708501 0.028273
vt 0.690904 0.028273
vt 0.690904 0.010647
vt 0.708501 0.010647
vt 0.990510 0.972936
vt 0.976228 0.970054
vt 0.975235 0.960455
vt 0.988420 0.955289
vt 0.964512 0.951336
vt 0.978033 0.940329
vt 0.950991 0.940329
vt 0.953789 0.960455
vt 0.940604 0.955289
vt 0.952796 0.970054
vt 0.938515 0.972936
vt 0.956418 0.977913
vt 0.948034 0.987978
vt 0.964512 0.980173
vt 0.964512 0.994547
vt 0.972606 0.977913
vt 0.980990 0.987978
vt 0.678290 0.028273
vt 0.678290 0.010647
vt 0.678290 0.045899
vt 0.678290 0.063524
vt 0.678290 0.081150
vt 0.964512 0.968649
vt 0.029996 0.543099
vt 0.121577 0.543099
vt 0.121577 0.548194
vt 0.029996 0.548194
vt 0.029996 0.746859
vt 0.029996 0.549674
vt 0.120641 0.549674
vt 0.120640 0.746859
vt 0.029996 0.761061
vt 0.121577 0.761061
vt 0.121577 0.766156
vt 0.029996 0.766156
vt 0.010266 0.760518
vt 0.010266 0.746859
vt 0.015360 0.746859
vt 0.015360 0.760518
vt 0.354105 0.741220
vt 0.354105 0.543099
vt 0.368197 0.543099
vt 0.368197 0.741220
vt 0.016840 0.746859
vt 0.029996 0.759582
vt 0.016840 0.759582
vt 0.122120 0.760518
vt 0.120640 0.759582
vt 0.122120 0.746859
vt 0.015904 0.761061
vt 0.015360 0.548738
vt 0.016840 0.549674
vt 0.368197 0.754879
vt 0.354105 0.754879
vt 0.122120 0.548738
vt 0.127215 0.746859
vt 0.127215 0.760518
vt 0.127215 0.548738
vt 0.010266 0.548738
vt 0.015904 0.543099
vt 0.015904 0.548194
vt 0.015904 0.766156
vt 0.262525 0.741220
vt 0.262525 0.543099
vt 0.262525 0.754879
vt 0.633338 0.136118
vt 0.641124 0.136118
vt 0.641124 0.154332
vt 0.633338 0.154332
vt 0.633338 0.117904
vt 0.641124 0.117904
vt 0.633338 0.099690
vt 0.641124 0.099690
vt 0.622476 0.063262
vt 0.622476 0.045049
vt 0.633338 0.045049
vt 0.633338 0.063262
vt 0.622476 0.081476
vt 0.633338 0.081476
vt 0.622476 0.099690
vt 0.622476 0.117904
vt 0.622476 0.136118
vt 0.622476 0.154332
vt 0.622476 0.026835
vt 0.622476 0.008621
vt 0.633338 0.008621
vt 0.633338 0.026835
vt 0.938514 0.915376
vt 0.940604 0.897729
vt 0.953789 0.902895
vt 0.952796 0.912494
vt 0.950991 0.882769
vt 0.964512 0.893776
vt 0.978033 0.882769
vt 0.988419 0.897729
vt 0.975235 0.902895
vt 0.990510 0.915376
vt 0.976228 0.912494
vt 0.980990 0.930418
vt 0.972606 0.920354
vt 0.964512 0.936988
vt 0.964512 0.922613
vt 0.948034 0.930418
vt 0.956418 0.920354
vt 0.641124 0.008621
vt 0.641124 0.026835
vt 0.641124 0.045049
vt 0.641124 0.063262
vt 0.641124 0.081476
vt 0.964512 0.911090
vt 0.245855 0.546779
vt 0.253339 0.546779
vt 0.253339 0.758559
vt 0.245855 0.758559
vt 0.245855 0.762239
vt 0.261680 0.758559
vt 0.261680 0.546779
vt 0.245855 0.543099
vt 0.572075 0.294486
vt 0.572075 0.513019
vt 0.351741 0.294486
vt 0.568758 0.516335
vt 0.571104 0.515364
vt 0.348425 0.516335
vt 0.350770 0.515364
vt 0.346503 0.516335
vt 0.344158 0.515364
vt 0.513067 0.746963
vt 0.454570 0.746963
vt 0.454570 0.545486
vt 0.513067 0.545486
vt 0.873994 0.791877
vt 0.931442 0.791877
vt 0.931442 0.993354
vt 0.873994 0.993354
vt 0.802248 0.791877
vt 0.873149 0.791877
vt 0.873149 0.993354
vt 0.802248 0.993354
vt 0.512799 0.012173
vt 0.570246 0.012173
vt 0.570246 0.213650
vt 0.512799 0.213650
vt 0.589780 0.575939
vt 0.788616 0.575939
vt 0.788616 0.581934
vt 0.589780 0.581934
vt 0.015083 0.062436
vt 0.015083 0.004989
vt 0.213919 0.004989
vt 0.213919 0.062436
vt 0.582086 0.745179
vt 0.523589 0.745179
vt 0.523589 0.543702
vt 0.582086 0.543702
vt 0.219630 0.529963
vt 0.162183 0.529963
vt 0.373110 0.068543
vt 0.367115 0.280322
vt 0.438079 0.068543
vt 0.438079 0.280322
vt 0.373110 0.280322
vt 0.290219 0.286794
vt 0.232772 0.286794
vt 0.367115 0.286794
vt 0.296214 0.286794
vt 0.296214 0.280322
vt 0.162183 0.311712
vt 0.315342 0.991085
vt 0.315342 0.779305
vt 0.398233 0.779305
vt 0.398233 0.991085
vt 0.463202 0.779305
vt 0.463202 0.991085
vt 0.795613 0.584395
vt 0.795613 0.578399
vt 0.994449 0.578400
vt 0.994449 0.584395
vt 0.589780 0.374462
vt 0.788616 0.374462
vt 0.788616 0.783411
vt 0.589780 0.783411
vt 0.373110 0.286794
vt 0.431608 0.286794
vt 0.795613 0.376922
vt 0.994449 0.376922
vt 0.795613 0.785872
vt 0.994449 0.785872
s 1
usemtl KitchenCabinet2
f 9/1/1 5/2/1 7/3/1 11/4/1
f 167/5/2 3/6/2 11/7/2 161/8/2
f 161/8/3 11/7/3 7/9/3 18/10/3
f 6/11/4 10/12/4 12/13/4 8/14/4
f 4/15/1 2/16/1 14/17/1 16/18/1
f 6/19/5 160/20/5 10/21/5
f 12/22/3 162/23/3 8/24/3
f 169/25/2 168/26/2 161/27/2 162/28/2
f 3/29/2 1/30/2 9/1/2 11/4/2
f 2/31/2 4/32/2 12/13/2 10/12/2
f 173/33/2 172/34/2 175/35/2 178/36/2
f 171/37/2 13/38/2 15/39/2 176/40/2
f 1/41/4 3/42/4 15/43/4 13/44/4
f 166/45/3 163/46/3 172/47/3 173/48/3
f 158/49/5 22/50/5 17/51/5 155/52/5
f 155/53/6 156/54/6 19/55/6 20/56/6
f 156/57/3 157/58/3 28/59/3 19/60/3
f 157/58/3 27/61/3 29/62/3 28/59/3
f 22/63/7 24/64/7 18/65/4 17/66/4
f 21/67/8 25/68/8 26/69/9 23/70/9
f 23/70/10 26/69/10 24/71/7 22/72/7
f 30/73/11 28/59/11 29/74/12 32/75/12
f 32/75/13 29/74/13 27/76/14 31/77/14
f 25/68/8 21/67/8 31/77/14 27/76/14
f 57/78/4 52/79/4 38/80/4 33/81/4
f 46/82/2 53/83/2 37/84/2 54/85/2
f 47/86/1 55/87/1 34/88/1 40/89/1
f 36/90/5 44/91/5 58/92/5 49/93/5
f 45/94/6 49/95/6 35/96/6 57/97/6
f 56/98/2 43/99/2 50/100/2 46/82/2
f 40/101/15 51/102/15 53/83/15 39/103/15
f 43/99/16 56/98/16 58/92/16 44/91/16
f 54/85/17 37/84/17 38/80/17 52/79/17
f 50/100/18 43/99/18 44/104/18 47/86/18
f 58/92/16 56/98/16 41/105/16 42/106/16
f 45/94/6 55/107/6 36/108/6 49/95/6
f 53/83/15 51/102/15 38/109/15 37/84/15
f 46/82/2 50/100/2 39/103/2 53/83/2
f 51/102/3 40/101/3 34/110/3 48/111/3
f 51/102/3 48/111/3 33/112/3 38/109/3
f 49/93/5 58/92/5 42/106/5 35/113/5
f 35/114/4 42/115/4 52/79/4 57/78/4
f 56/98/2 46/82/2 54/85/2 41/105/2
f 44/104/1 36/116/1 55/87/1 47/86/1
f 48/117/6 45/94/6 57/97/6 33/118/6
f 41/105/17 54/85/17 52/79/17 42/115/17
f 39/103/18 50/100/18 47/86/18 40/89/18
f 48/117/6 34/119/6 55/107/6 45/94/6
f 69/120/19 68/121/20 84/122/20 85/123/19
f 70/124/21 69/120/19 85/123/19 86/125/21
f 71/126/22 70/124/21 86/125/21 87/127/22
f 65/128/23 73/129/23 66/130/23 59/131/23
f 64/132/24 72/133/24 73/129/24 65/128/24
f 63/134/25 71/126/25 72/133/25 64/132/25
f 46/135/26 70/124/26 71/126/26 63/134/26
f 62/136/27 69/120/27 70/124/27 46/135/27
f 61/137/28 68/121/28 69/120/28 62/136/28
f 60/138/29 67/139/29 68/140/29 61/141/29
f 59/131/30 66/130/30 67/139/30 60/138/30
f 76/142/31 75/143/31 74/144/31 83/145/31
f 83/145/32 74/144/32 77/146/32 84/147/32
f 84/148/33 77/146/33 78/149/33 85/150/33
f 85/150/34 78/149/34 79/151/34 86/152/34
f 86/152/35 79/151/35 80/153/35 87/154/35
f 87/154/36 80/153/36 81/155/36 88/156/36
f 88/156/37 81/155/37 82/157/37 89/158/37
f 89/158/38 82/157/38 75/143/38 76/142/38
f 68/140/20 67/139/39 83/159/39 84/160/20
f 67/139/39 66/130/40 76/161/40 83/159/39
f 66/130/40 73/129/41 89/162/41 76/161/40
f 73/129/41 72/133/42 88/163/42 89/162/41
f 72/133/42 71/126/22 87/127/22 88/163/42
f 77/146/43 74/144/44 90/164/2 78/149/45
f 74/144/44 75/143/46 82/157/47 90/164/2
f 78/149/45 90/164/2 80/153/48 79/151/49
f 90/164/2 82/157/47 81/155/50 80/153/48
f 115/165/4 91/166/4 96/167/4 110/168/4
f 104/169/2 112/170/2 95/171/2 111/172/2
f 105/173/1 98/174/1 92/175/1 113/176/1
f 94/177/3 107/178/3 116/179/3 102/180/3
f 103/181/6 115/182/6 93/183/6 107/184/6
f 114/185/2 104/169/2 108/186/2 101/187/2
f 98/188/16 97/189/16 111/172/16 109/190/16
f 101/187/15 102/180/15 116/179/15 114/185/15
f 112/170/17 110/168/17 96/167/17 95/171/17
f 108/186/18 105/173/18 102/191/18 101/187/18
f 116/179/15 100/192/15 99/193/15 114/185/15
f 103/181/6 107/184/6 94/194/6 113/195/6
f 111/172/16 95/171/16 96/196/16 109/190/16
f 104/169/2 111/172/2 97/189/2 108/186/2
f 109/190/5 106/197/5 92/198/5 98/188/5
f 109/190/5 96/196/5 91/199/5 106/197/5
f 107/178/3 93/200/3 100/192/3 116/179/3
f 93/201/4 115/165/4 110/168/4 100/202/4
f 114/185/2 99/193/2 112/170/2 104/169/2
f 102/191/1 105/173/1 113/176/1 94/203/1
f 106/204/6 91/205/6 115/182/6 103/181/6
f 99/193/17 100/202/17 110/168/17 112/170/17
f 97/189/18 98/174/18 105/173/18 108/186/18
f 106/204/6 103/181/6 113/195/6 92/206/6
f 127/207/39 143/208/39 142/209/20 126/210/20
f 128/211/40 144/212/40 143/208/39 127/207/39
f 129/213/41 145/214/41 144/212/40 128/211/40
f 123/215/26 117/216/26 124/217/26 131/218/26
f 122/219/25 123/215/25 131/218/25 130/220/25
f 121/221/24 122/219/24 130/220/24 129/213/24
f 104/222/23 121/221/23 129/213/23 128/211/23
f 120/223/30 104/222/30 128/211/30 127/207/30
f 119/224/29 120/223/29 127/207/29 126/210/29
f 118/225/28 119/226/28 126/227/28 125/228/28
f 117/216/27 118/225/27 125/228/27 124/217/27
f 134/229/34 141/230/34 132/231/34 133/232/34
f 141/230/33 142/233/33 135/234/33 132/231/33
f 142/235/32 143/236/32 136/237/32 135/234/32
f 143/236/31 144/238/31 137/239/31 136/237/31
f 144/238/38 145/240/38 138/241/38 137/239/38
f 145/240/37 146/242/37 139/243/37 138/241/37
f 146/242/36 147/244/36 140/245/36 139/243/36
f 147/244/35 134/229/35 133/232/35 140/245/35
f 126/227/20 142/246/20 141/247/19 125/228/19
f 125/228/19 141/247/19 134/248/21 124/217/21
f 124/217/21 134/248/21 147/249/22 131/218/22
f 131/218/22 147/249/22 146/250/42 130/220/42
f 130/220/42 146/250/42 145/214/41 129/213/41
f 135/234/43 136/237/44 148/251/2 132/231/45
f 132/231/45 148/251/2 140/245/48 133/232/49
f 136/237/44 137/239/46 138/241/47 148/251/2
f 148/251/2 138/241/47 139/243/50 140/245/48
s 0
f 149/252/6 150/253/6 152/254/6 151/255/6
f 151/255/5 152/254/5 154/256/5
f 154/257/51 152/254/51 150/253/51 153/258/51
f 153/259/3 150/253/3 149/252/3
s 1
f 18/260/3 24/261/3 157/58/3 156/57/3
f 30/73/11 20/262/1 19/60/1 28/59/11
f 17/66/6 18/65/6 156/54/6 155/53/6
f 157/58/3 25/263/3 27/61/3
f 24/261/3 26/264/3 25/263/3 157/58/3
f 31/265/5 158/49/5 30/73/5 32/266/5
f 30/73/5 158/49/5 155/52/5 20/262/5
f 21/267/5 23/268/5 22/50/5 158/49/5
f 31/265/5 21/267/5 158/49/5
f 3/269/5 167/270/5 176/271/5 15/272/5
f 2/273/3 165/274/3 174/275/3 14/276/3
f 168/277/5 169/278/5 178/279/5 175/280/5
f 170/281/5 4/282/5 16/283/5 177/284/5
f 170/285/2 165/286/2 166/287/2 169/288/2
f 14/289/2 174/290/2 177/291/2 16/292/2
f 164/293/3 1/294/3 13/295/3 171/296/3
f 4/297/2 170/298/2 162/23/2 12/22/2
f 160/20/5 6/19/5 17/299/5 159/300/5
f 17/299/5 5/301/5 9/302/5 159/303/5
f 165/304/2 2/305/2 10/21/2 160/20/2
f 163/306/2 166/307/2 160/308/2 159/300/2
f 18/10/3 8/309/3 162/28/3 161/8/3
f 6/310/6 8/311/6 18/312/6 17/313/6
f 18/312/1 7/314/1 5/315/1 17/313/1
f 163/316/2 164/317/2 167/318/2 168/319/2
f 165/286/4 170/285/4 177/320/4 174/321/4
f 169/288/1 166/287/1 173/322/1 178/323/1
f 169/25/2 162/23/2 170/298/2
f 167/5/2 161/27/2 168/26/2
f 163/306/2 159/303/2 164/324/2
f 165/304/2 160/308/2 166/307/2
f 1/325/2 164/324/2 159/303/2 9/302/2
f 164/317/1 171/326/1 176/327/1 167/318/1
f 172/328/4 163/316/4 168/319/4 175/329/4
