# Blender 3.3.0
# www.blender.org
mtllib Newspaper.mtl
g Plane_Plane.001
v -0.293833 -0.017557 -0.400393
v 0.321361 -0.009072 -0.417100
v -0.290826 0.003751 -0.452224
v 0.321092 0.011918 -0.470273
v -0.338186 -0.006938 -0.000380
v -0.338139 0.000177 -0.007084
v 0.343255 -0.000000 -0.003490
v -0.338134 -0.013973 -0.007801
v 0.343289 -0.007030 0.003221
v 0.343303 -0.014151 -0.004208
v -0.091345 -0.019173 -0.398393
v 0.102681 -0.019155 -0.406695
v 0.102240 0.000143 -0.459564
v -0.090359 -0.000000 -0.450921
v 0.104832 0.000000 0.012138
v -0.114167 -0.000000 -0.003815
v -0.114166 -0.014151 -0.004534
v 0.104844 -0.014151 0.011415
v -0.114174 -0.007030 0.002881
v 0.104811 -0.007030 0.018876
v -0.305679 -0.005406 -0.304981
v -0.325782 -0.000000 -0.155572
v 0.334814 -0.000000 -0.159519
v 0.323370 0.003109 -0.318221
v -0.109437 -0.000000 -0.153767
v -0.096793 -0.000000 -0.302992
v 0.106909 -0.000000 -0.146556
v 0.105261 -0.000000 -0.309219
v -0.293795 -0.013017 -0.400422
v 0.321386 -0.004512 -0.417146
v -0.290837 -0.000748 -0.452229
v 0.321087 0.007425 -0.470275
v -0.338094 -0.006779 -0.006701
v -0.338132 -0.004263 -0.009072
v 0.343132 -0.004494 -0.005370
v -0.338105 -0.009537 -0.009672
v 0.342875 -0.006876 -0.003092
v 0.343186 -0.009681 -0.005998
v -0.091344 -0.014694 -0.398450
v 0.102681 -0.014673 -0.406749
v 0.102240 -0.004338 -0.459564
v -0.090360 -0.004480 -0.450920
v 0.104839 -0.004454 0.010151
v -0.114097 -0.004483 -0.005717
v -0.114088 -0.009682 -0.006326
v 0.104850 -0.009717 0.009527
v -0.113894 -0.006878 -0.003438
v 0.104834 -0.006893 0.012536
v -0.305708 -0.009914 -0.304954
v -0.325817 -0.004462 -0.155582
v 0.334814 -0.004480 -0.159519
v 0.323368 -0.001376 -0.318221
v -0.109456 -0.004480 -0.153768
v -0.096802 -0.004480 -0.302981
v 0.106909 -0.004480 -0.146556
v 0.105261 -0.004480 -0.309219
vn -0.0200 -0.7181 -0.6957
vn 0.6611 -0.7017 0.2656
vn -0.0013 -0.9203 0.3913
vn -0.0166 0.9217 0.3875
vn -0.5881 -0.0227 0.8085
vn -0.0442 -0.0227 0.9988
vn -0.0170 -0.9279 0.3725
vn 0.6957 0.7182 -0.0100
vn -0.0440 0.7056 -0.7072
vn -0.0049 1.0000 0.0025
vn -0.0060 1.0000 0.0057
vn -0.5409 0.5989 -0.5905
vn -0.7145 0.6960 -0.0719
vn -0.0071 0.7109 -0.7032
vn 0.6191 -0.0172 0.7852
vn -0.0037 -0.0216 0.9998
vn -0.0015 0.9135 0.4069
vn 0.6562 0.7012 0.2789
vn -0.5426 -0.5840 -0.6038
vn -0.6495 -0.7159 0.2562
vn -0.0143 -0.7227 -0.6911
vn -0.0000 1.0000 -0.0000
vn -0.0041 1.0000 -0.0041
vn -0.7010 0.7076 -0.0886
vn -0.6398 0.7143 0.2837
vn 0.7087 0.7044 -0.0406
vn -0.0435 0.6967 -0.7161
vn 0.7964 0.5676 -0.2087
vn 0.5360 0.5920 -0.6018
vn 0.0161 -0.9213 -0.3886
vn -0.8992 0.0133 -0.4374
vn -0.8138 -0.5183 -0.2628
vn 0.0168 0.9266 -0.3758
vn 0.0451 0.0203 -0.9988
vn -0.0222 -0.7092 -0.7046
vn 0.7041 -0.7083 -0.0506
vn 0.0049 -1.0000 -0.0025
vn -0.5457 -0.5655 -0.6184
vn 0.0061 -1.0000 -0.0057
vn -0.6825 -0.7250 -0.0931
vn -0.0198 -0.7149 -0.6990
vn 0.8714 0.0123 -0.4905
vn 0.0013 0.9220 -0.3871
vn 0.0037 0.0210 -0.9998
vn 0.0015 -0.9156 -0.4021
vn 0.8021 -0.5570 -0.2153
vn -0.5338 0.5819 -0.6135
vn -0.0087 0.7033 -0.7108
vn -0.0000 -1.0000 -0.0000
vn 0.0041 -1.0000 0.0041
vn -0.7159 -0.6950 -0.0663
vn 0.7068 -0.7057 -0.0486
vn 0.5585 -0.5634 -0.6088
vn 0.5748 -0.5409 -0.6141
vn 0.5430 0.6097 -0.5774
vn -0.8029 0.5314 -0.2703
vt 0.000000 0.000000
vt 1.000000 0.000000
vt 0.000000 1.000000
vt 1.000000 1.000000
vt 0.000000 0.462595
vt 0.000000 0.507857
vt 1.000000 0.507857
vt 0.000000 0.417611
vt 1.000000 0.462595
vt 1.000000 0.417611
vt 0.333333 0.000000
vt 0.666667 0.000000
vt 0.666667 1.000000
vt 0.333333 1.000000
vt 0.666667 0.507857
vt 0.333333 0.507857
vt 0.333333 0.417611
vt 0.666667 0.417611
vt 0.333333 0.462595
vt 0.666667 0.462595
vt 0.000000 0.835952
vt 0.000000 0.671904
vt 1.000000 0.671904
vt 1.000000 0.835952
vt 0.333333 0.671904
vt 0.333333 0.835952
vt 0.666667 0.671904
vt 0.666667 0.835952
vt 0.000000 0.000000
vt 1.000000 0.000000
vt 0.000000 1.000000
vt 1.000000 1.000000
vt 0.000000 0.462595
vt 0.000000 0.507857
vt 1.000000 0.507857
vt 0.000000 0.417611
vt 1.000000 0.462595
vt 1.000000 0.417611
vt 0.333333 0.000000
vt 0.666667 0.000000
vt 0.666667 1.000000
vt 0.333333 1.000000
vt 0.666667 0.507857
vt 0.333333 0.507857
vt 0.333333 0.417611
vt 0.666667 0.417611
vt 0.333333 0.462595
vt 0.666667 0.462595
vt 0.000000 0.835952
vt 0.000000 0.671904
vt 1.000000 0.671904
vt 1.000000 0.835952
vt 0.333333 0.671904
vt 0.333333 0.835952
vt 0.666667 0.671904
vt 0.666667 0.835952
s 1
g off
g Plane_Newspaper
usemtl Newspaper
f 12/12/1 10/10/2 18/18/3
f 16/16/4 5/5/5 19/19/6
f 5/5/5 17/17/7 19/19/6
f 24/24/8 13/13/9 28/28/10
f 26/26/11 3/3/12 21/21/13
f 28/28/10 14/14/14 26/26/11
f 9/9/15 18/18/3 10/10/2
f 19/19/6 18/18/3 20/20/16
f 15/15/17 9/9/15 7/7/18
f 15/15/17 19/19/6 20/20/16
f 1/1/19 17/17/7 8/8/20
f 11/11/21 18/18/3 17/17/7
f 16/16/4 27/27/22 25/25/23
f 27/27/22 26/26/11 25/25/23
f 16/16/4 22/22/24 6/6/25
f 25/25/23 21/21/13 22/22/24
f 7/7/18 27/27/22 15/15/17
f 23/23/26 28/28/10 27/27/22
f 40/40/27 38/38/28 30/30/29
f 44/44/30 33/33/31 34/34/32
f 45/45/33 33/33/31 47/47/34
f 41/41/35 52/52/36 56/56/37
f 31/31/38 54/54/39 49/49/40
f 42/42/41 56/56/37 54/54/39
f 37/37/42 46/46/43 48/48/44
f 46/46/43 47/47/34 48/48/44
f 37/37/42 43/43/45 35/35/46
f 43/43/45 47/47/34 44/44/30
f 29/29/47 45/45/33 39/39/48
f 39/39/48 46/46/43 40/40/27
f 44/44/30 55/55/49 43/43/45
f 54/54/39 55/55/49 53/53/50
f 50/50/51 44/44/30 34/34/32
f 49/49/40 53/53/50 50/50/51
f 55/55/49 35/35/46 43/43/45
f 56/56/37 51/51/52 55/55/49
f 2/2/53 40/40/27 30/30/29
f 14/14/14 31/31/38 3/3/12
f 6/6/25 33/33/31 5/5/5
f 10/10/2 37/37/42 9/9/15
f 22/22/24 34/34/32 6/6/25
f 24/24/8 32/32/54 4/4/55
f 1/1/19 36/36/56 29/29/47
f 2/2/53 38/38/28 10/10/2
f 7/7/18 37/37/42 35/35/46
f 8/8/20 33/33/31 36/36/56
f 1/1/19 39/39/48 11/11/21
f 12/12/1 39/39/48 40/40/27
f 13/13/9 32/32/54 41/41/35
f 14/14/14 41/41/35 42/42/41
f 21/21/13 31/31/38 49/49/40
f 21/21/13 50/50/51 22/22/24
f 23/23/26 35/35/46 51/51/52
f 23/23/26 52/52/36 24/24/8
f 12/12/1 2/2/53 10/10/2
f 16/16/4 6/6/25 5/5/5
f 5/5/5 8/8/20 17/17/7
f 24/24/8 4/4/55 13/13/9
f 26/26/11 14/14/14 3/3/12
f 28/28/10 13/13/9 14/14/14
f 9/9/15 20/20/16 18/18/3
f 19/19/6 17/17/7 18/18/3
f 15/15/17 20/20/16 9/9/15
f 15/15/17 16/16/4 19/19/6
f 1/1/19 11/11/21 17/17/7
f 11/11/21 12/12/1 18/18/3
f 16/16/4 15/15/17 27/27/22
f 27/27/22 28/28/10 26/26/11
f 16/16/4 25/25/23 22/22/24
f 25/25/23 26/26/11 21/21/13
f 7/7/18 23/23/26 27/27/22
f 23/23/26 24/24/8 28/28/10
f 40/40/27 46/46/43 38/38/28
f 44/44/30 47/47/34 33/33/31
f 45/45/33 36/36/56 33/33/31
f 41/41/35 32/32/54 52/52/36
f 31/31/38 42/42/41 54/54/39
f 42/42/41 41/41/35 56/56/37
f 37/37/42 38/38/28 46/46/43
f 46/46/43 45/45/33 47/47/34
f 37/37/42 48/48/44 43/43/45
f 43/43/45 48/48/44 47/47/34
f 29/29/47 36/36/56 45/45/33
f 39/39/48 45/45/33 46/46/43
f 44/44/30 53/53/50 55/55/49
f 54/54/39 56/56/37 55/55/49
f 50/50/51 53/53/50 44/44/30
f 49/49/40 54/54/39 53/53/50
f 55/55/49 51/51/52 35/35/46
f 56/56/37 52/52/36 51/51/52
f 2/2/53 12/12/1 40/40/27
f 14/14/14 42/42/41 31/31/38
f 6/6/25 34/34/32 33/33/31
f 10/10/2 38/38/28 37/37/42
f 22/22/24 50/50/51 34/34/32
f 24/24/8 52/52/36 32/32/54
f 1/1/19 8/8/20 36/36/56
f 2/2/53 30/30/29 38/38/28
f 7/7/18 9/9/15 37/37/42
f 8/8/20 5/5/5 33/33/31
f 1/1/19 29/29/47 39/39/48
f 12/12/1 11/11/21 39/39/48
f 13/13/9 4/4/55 32/32/54
f 14/14/14 13/13/9 41/41/35
f 21/21/13 3/3/12 31/31/38
f 21/21/13 49/49/40 50/50/51
f 23/23/26 7/7/18 35/35/46
f 23/23/26 51/51/52 52/52/36
